<svg id="Layer_1" data-name="Layer 1" xmlns="http://www.w3.org/2000/svg" viewBox="0 0 216.05 66.45"><defs><style>.cls-1{fill:#040404;}.cls-2{fill:#fdc503;}</style></defs><path class="cls-1" d="M180.86.15c6.62,0,13.23,0,19.84,0C211.13.22,217,6.65,215.94,17c-1.21,12.26-2.44,24.52-3.83,36.76-.85,7.44-6,12.31-13.52,12.47-11.74.24-23.49.31-35.23,0-6.13-.18-13-4.49-13.54-12.52-.89-12.41-2.58-24.77-3.77-37.17-.94-9.84,5-16.25,15-16.36C167.63.1,174.25.15,180.86.15Zm-9.29,20.94V21c-1.76,0-3.52-.11-5.26.05-1.08.09-3.36-.88-2.75,1.47s-1.68,5.49,1.94,6.56c6.38,1.89,11.9,10.57,10.8,17.15-.2,1.16-.59,1.54-1.74,1.7-2.95.39-1.28,2.71-1.48,4.16-.29,2.07,1.33,1.94,2.7,1.91l10.92-.32c1.13,0,2.34,0,2.18-1.62-.15-1.38.79-3-.71-4.12-2.51-1.86-3.85-7.39-1.64-9.66,3.44-3.53,5-9.13,10.83-10.14.84-.15.76-1,.87-1.61.77-4.41-.06-5.42-4.53-5.49-2.16,0-4.32-.18-6.47-.06-1.5.09-3.81-1-4.31.83s-1.15,4.24.58,6-.53,2.13-1,3c-.81,1.42-1.83.77-2.46-.25-.43-.68-2-.71-.94-2.37,2.68-4.23,1-7.1-3.85-7.15C174,21.08,172.78,21.09,171.57,21.09Z"/><path class="cls-1" d="M35,.15c6.48,0,12.95,0,19.43,0C65.16.19,71,6.52,70,17.09c-1.19,12.13-2.39,24.25-3.77,36.36-.9,7.89-6.14,12.72-14,12.83-11.47.17-22.95.22-34.42,0-6-.13-13.32-4.38-13.89-12.63C3,41.2,1.29,28.85.1,16.45-.83,6.8,5,.32,14.74.17,21.49.07,28.24.15,35,.15Zm8.66,38.08c3.82-2.51,6.89-5.39,5.51-10.3-1.31-4.63-5.3-6-9.34-6.62-6.29-1-12.66-.17-19-.11-2,0-2.1,1.43-1.87,2.8.31,1.78-1.06,5,1.76,4.92,4.14-.11,3.82,2.1,3.73,4.77-.11,3.38-.16,6.77-.16,10.15,0,1.77-.05,3.09-2.5,3.11s-1.32,2.22-1.35,3.44S19.64,53.75,22,53.9c7.66.49,15.37,1.46,22.94-.57,3.14-.85,4.92-3.22,5.29-6.51.33-3-1.16-5.18-3.53-6.82C45.8,39.42,44.87,39,43.65,38.23Z"/><path class="cls-2" d="M107.91,66.35c-6.48,0-13,0-19.44,0-10.41,0-16.3-6.34-15.35-16.79,1.11-12.12,2.41-24.24,3.81-36.34C77.89,5,82.88.33,91.19.17c11.34-.22,22.68-.24,34,0,8,.17,13.14,5,14,12.91,1.46,12.91,2.83,25.84,4,38.77.7,7.67-5.93,14.28-14.27,14.46C122,66.46,114.93,66.35,107.91,66.35ZM90.15,34.79C90.06,46,96.53,52.52,108,52.67c10.79.13,17.78-6.75,17.83-17.58.06-11-6.63-18-17.33-18.07C96.75,17,90.24,23.26,90.15,34.79Z"/><path class="cls-1" d="M90.15,34.79C90.24,23.26,96.75,17,108.48,17c10.7.06,17.39,7,17.33,18.07,0,10.83-7,17.71-17.83,17.58C96.53,52.52,90.06,46,90.15,34.79Zm11.16-.93c0,4.93,2.7,8.18,6.94,8.28,4,.09,6.27-2.72,6.34-7.71.08-5.77-2.2-9.08-6.32-9.15C103.87,25.21,101.34,28.32,101.31,33.86Z"/><path class="cls-1" d="M33.69,44.85c-.21-1.68.09-3,2.24-2.63,1.79.27,4.25.09,4.12,2.64S37.44,47,35.66,47.29C33.63,47.62,33.51,46.36,33.69,44.85Z"/><path class="cls-1" d="M33.49,32.32c.07-1.63-.5-3.51,2.18-3.29,1.88.16,3.64.52,3.59,2.8,0,2.67-2.21,3-4.26,3.17C32.51,35.21,33.87,33.21,33.49,32.32Z"/><path class="cls-2" d="M101.31,33.86c0-5.54,2.56-8.65,7-8.58,4.12.07,6.4,3.38,6.32,9.15-.07,5-2.38,7.8-6.34,7.71C104,42,101.28,38.79,101.31,33.86Z"/></svg>