<?xml version="1.0" encoding="utf-8"?>
<!-- Generator: Adobe Illustrator 24.1.2, SVG Export Plug-In . SVG Version: 6.00 Build 0)  -->
<svg version="1.1" id="Layer_1" xmlns="http://www.w3.org/2000/svg" xmlns:xlink="http://www.w3.org/1999/xlink" x="0px" y="0px"
	 viewBox="0 0 80 80" style="enable-background:new 0 0 80 80;" xml:space="preserve">
<style type="text/css">
	.st0{fill:#3AAAE8;}
	.st1{clip-path:url(#SVGID_2_);}
	.st2{fill:#F2F2F1;}
	.st3{fill:#4C78BC;}
	.st4{fill:#5A5B5D;}
	.st5{fill:#3E69B1;}
	.st6{fill:#E6E7E7;}
	.st7{fill:#D2D3D3;}
	.st8{fill:#8D431F;}
	.st9{fill:#7E351A;}
	.st10{fill:#444447;}
	.st11{fill:#FFCC26;}
	.st12{fill:#F89521;}
	.st13{fill:#E97926;}
	.st14{fill:#6E96CE;}
	.st15{fill:#FBA91F;}
	.st16{fill:#5C5E60;}
	.st17{fill:none;}
</style>
<circle class="st0" cx="40" cy="40" r="37.7"/>
<g>
	<defs>
		<circle id="SVGID_1_" cx="40" cy="40" r="37.7"/>
	</defs>
	<clipPath id="SVGID_2_">
		<use xlink:href="#SVGID_1_"  style="overflow:visible;"/>
	</clipPath>
	<g class="st1">
		<path class="st2" d="M10.5,70.5V36.7c1.3-1,2.6-2,4-2.9L39.3,16c0.4-0.3,0.7-0.6,1.2-0.2c5,3.7,10.1,7.3,15.2,10.9v3.6
			c-2.4-0.5-3.4-1.3-3.8-3.4c-0.1-0.4,0-1.1-0.5-1.1S51,26.6,50.9,27c-0.2,1.8-1.6,3.2-3.4,3.3c-0.2,0-0.4,0.1-0.6,0.1
			c-0.2,0-0.4,0.1-0.4,0.4s0.2,0.3,0.4,0.3s0.3,0.1,0.4,0.1c2,0.1,3.5,1.7,3.7,3.6c0,0.3,0,0.7,0.4,0.7s0.3-0.5,0.4-0.8
			c0.6-2.5,1.4-3.3,3.8-3.6v7.6l-1.2,0.3c-0.2,0-0.4,0.2-0.4,0.4c0,0.2,0.2,0.4,0.4,0.4c0.4,0.1,0.8,0.2,1.2,0.3v22.3h-3.5V39.7
			c0-1.3-0.2-1.5-1.5-1.5H29.2c-1.4,0-1.5,0.2-1.5,1.6v30.7L10.5,70.5L10.5,70.5z M24.8,63.7c0-0.3-0.2-0.4-1-0.5
			c-2.2-0.2-4-1.9-4.2-4.1c-0.1-0.4,0-1.1-0.5-1.1s-0.5,0.7-0.5,1.1c-0.2,2.2-1.9,3.9-4.1,4.1c-0.3,0-0.5,0.1-0.8,0.2
			c-0.2,0-0.3,0.2-0.3,0.4c0,0.2,0.2,0.3,0.3,0.3c0.2,0.1,0.6,0.2,0.9,0.2c2.1,0.2,3.8,1.9,4,4c0.1,0.4,0,1.1,0.5,1.1
			s0.5-0.7,0.5-1.1c0.2-2.1,1.9-3.8,4-4.1c0.3,0,0.6-0.1,0.8-0.2C24.6,64.1,24.8,64,24.8,63.7z"/>
		<path class="st3" d="M0.2,34.5c0.3-1.1,0.9-2,1.9-2.6l10.8-7.7C21,18.4,29.2,12.5,37.3,6.7c1.6-1.3,3.9-1.3,5.5,0l28.9,20.7
			l6.5,4.7c0.8,0.5,1.4,1.3,1.6,2.2l0.1,0.2v0.3c-0.1,0.1-0.3,0.3-0.4,0.5c-1.1,2.1-3.8,2.9-5.9,1.8c0,0,0,0,0,0
			c-0.2-0.1-0.5-0.3-0.7-0.5c-2.9-2.1-5.9-4.2-8.8-6.3l-11-7.9l-12.5-9c-0.3-0.3-0.7-0.3-0.9-0.1c-1.6,1.2-3.2,2.3-4.8,3.5
			L18.1,28.7c-3.7,2.7-7.4,5.3-11.1,8c-1.8,1.5-4.5,1.2-6-0.5C0.7,35.7,0.4,35.1,0.2,34.5z"/>
		<path class="st4" d="M27.7,70.5V39.8c0-1.4,0.2-1.6,1.5-1.6h21.6c1.3,0,1.5,0.2,1.5,1.5v22.7H39.6c-0.8-0.1-1.6,0.3-2,1.1
			c-1.1-0.4-1.7-0.1-1.6,1.1c0.2,2.6,1.7,5,4,6.3l0.7,6.5h-13V70.5z M40,53.6h7.1c1,0,1.2-0.2,1.2-1.1v-8.9c0-0.8-0.3-1.2-1.1-1.2
			H32.7c-0.8,0-1.1,0.3-1.1,1.1v9c0,0.8,0.3,1.1,1.1,1.1C35.2,53.6,37.6,53.6,40,53.6z M33.2,57.8c-0.9,0-1.5,0.7-1.6,1.5
			s0.7,1.5,1.5,1.6c0.9,0,1.5-0.7,1.6-1.5v-0.1C34.6,58.5,34,57.8,33.2,57.8z"/>
		<path class="st3" d="M34.6,64.5c-0.2-2.2-0.5-4.3-0.7-6.5c1,0.6,2.2,0.9,3.4,1h16.9c0.4,0,0.5,0.1,0.6,0.5c0,0.6-0.2,1.1-0.2,1.7
			c-1.7-0.1-3.3,1.1-3.6,2.8c-0.1,0.6-0.1,1.3,0,1.9v1.7c0,0,0,0.1,0,0.1c-0.7,2.6-1.3,5.2-1.8,7.8H36c-0.4-3.6-0.8-7.3-1.3-10.9
			C34.7,64.7,34.7,64.6,34.6,64.5z"/>
		<path class="st5" d="M0.2,34.5c0.6,2.3,2.9,3.6,5.1,3.1c0,0,0,0,0,0C6,37.4,6.6,37.1,7,36.7c3.7-2.7,7.4-5.3,11.1-8l16.6-11.9
			c1.6-1.2,3.3-2.3,4.8-3.5c0.3-0.2,0.7-0.2,0.9,0.1l12.5,9l11,7.9c2.9,2.1,5.9,4.2,8.8,6.3c1.9,1.5,4.6,1.2,6.1-0.7
			c0.2-0.2,0.3-0.4,0.5-0.7c0.1-0.2,0.2-0.3,0.4-0.5c0.7,2-1.1,4.7-3.3,5.1c-1.3,0.2-2.6-0.1-3.6-0.9c-1.1-0.8-2.2-1.6-3.3-2.3
			c-2.2-1.8-4.6-3.4-7-5l-7-5L40.5,15.8c-0.5-0.4-0.8-0.1-1.2,0.2L14.4,33.8c-1.3,1-2.6,1.9-4,2.9c-1.2,0.7-2.3,1.5-3.4,2.4
			c-1.9,1.5-4.6,1.1-6.1-0.8c-0.3-0.4-0.5-0.9-0.7-1.4C-0.1,36.1-0.1,35.2,0.2,34.5z"/>
		<path class="st6" d="M62.6,41.8v20.7h-6.9V40.1c2.3,0.2,4.1,2,4.3,4.3c0.1,0.3,0.1,0.7,0.2,1.1s0.1,0.5,0.4,0.5s0.4-0.2,0.5-0.5
			c0.1-0.5,0.2-0.9,0.3-1.4C61.5,43.2,62,42.4,62.6,41.8z"/>
		<path class="st7" d="M62.6,31.7c2.4,1.6,4.7,3.2,7,5v5.7l-0.7,0.2c-0.8,0.4-1.2,1.3-1.1,2.1v26h-0.6c-1.4,0-1.8,0.4-1.8,1.8v1.6
			h-2.8c0.1-1.1,0.2-2.1,0.3-3.2c0.3-0.2,0.6-0.4,0.9-0.6c1.9-1.4,3.1-3.6,3.2-6c0-0.7-0.3-1-1-1h-0.6c-0.7-1.1-1.8-0.8-2.8-0.9
			V41.8c0.9-1,2.1-1.6,3.5-1.8c0.4-0.1,1.1,0,1.1-0.6s-0.7-0.5-1.1-0.6c-1.4-0.1-2.7-0.8-3.6-1.9c0.3-0.3,0.2-0.6,0.2-0.9
			C62.7,34.6,62.6,33.2,62.6,31.7z"/>
		<path class="st8" d="M56.6,61.2H72c0.7,0,1.5,0.1,2.1,0.4c0,0.7,0,1.3,0.1,2c0.2,1.7-0.4,2.3-2.1,2.3H50.9c0-0.6,0-1.3,0-1.9
			c0.3-1.7,1.8-3,3.6-2.9L56.6,61.2z"/>
		<path class="st7" d="M27.7,74v3.5H12.3c-0.9,0.1-1.7-0.6-1.8-1.5c0,0,0,0,0,0c0-0.1,0-0.1,0-0.2c-0.1-1.8-0.1-3.5,0.1-5.3h0.1
			c0,0.8,0,1.7-0.1,2.5s0.2,1,1,1L27.7,74z"/>
		<path class="st9" d="M51,66h21.2c1.7,0,2.3-0.7,2.1-2.3c-0.1-0.7-0.1-1.3-0.1-2c1.2,0.6,1.9,1.8,1.9,3.2v2.8h-1.4c0,0-0.1,0-0.2,0
			h-1.6c-0.5-0.1-1-0.1-1.5,0h-3.1c-0.5-0.1-1-0.1-1.5,0h-2.7c-0.5-0.1-1-0.1-1.5,0H60c-0.5-0.1-1-0.1-1.5,0H51V66z"/>
		<path class="st10" d="M62.8,29.8l0.7-0.2c1.4,0.5,1.6,0.7,1.6,2.2v26.1h-1.6c-0.1-0.4-0.2-0.8-0.1-1.2V32.6
			C63.4,31.6,63.3,30.7,62.8,29.8z"/>
		<path class="st9" d="M63.5,57.9h2.4c1.4,0,1.8,0.4,1.8,1.8v1.5h-8.4v-1.5c0-1.4,0.4-1.8,1.8-1.8h0.6C62.2,58,62.8,58,63.5,57.9z"
			/>
		<path class="st5" d="M36,75.7h13c-0.1,0.8,0.3,1.6,1.1,1.8l-12.3,0.1c-0.2,0-0.4-0.1-0.6-0.1C36.5,77.3,35.9,76.5,36,75.7z"/>
		<path class="st11" d="M62.6,41.8c-0.6,0.6-1.1,1.4-1.2,2.3c-0.1,0.5-0.2,0.9-0.3,1.3c-0.1,0.3-0.1,0.5-0.5,0.5s-0.3-0.3-0.4-0.5
			c-0.1-0.3-0.2-0.7-0.2-1.1c-0.3-2.3-2.1-4-4.3-4.2c-0.4-0.1-0.8-0.2-1.2-0.3c-0.2,0-0.4-0.2-0.4-0.4c0-0.2,0.1-0.4,0.4-0.4
			c0,0,0,0,0,0l1.2-0.3c2.1-0.2,3.8-1.7,4.2-3.7c0.1-0.5,0.2-1.1,0.3-1.5c0-0.3,0.1-0.5,0.4-0.6s0.4,0.3,0.5,0.6s0.1,0.4,0.1,0.6
			c0.1,1,0.5,2,1.2,2.8c0.9,1.1,2.2,1.8,3.6,1.9c0.4,0.1,1.1,0,1.1,0.6s-0.7,0.5-1.1,0.6C64.8,40.1,63.5,40.7,62.6,41.8z"/>
		<path class="st12" d="M74.6,67.8h1.3c0.6,2.5,1.1,5,1.7,7.4c0.4,1.7-0.1,2.4-1.8,2.4h-1.2c-0.1-0.6-0.2-1.2-0.2-1.8
			c1.2,0,1.8-0.7,1.5-1.9c-0.4-2-0.9-4-1.3-5.9L74.6,67.8z"/>
		<path class="st13" d="M51,67.7h4.8c-0.6,0.1-0.5,0.6-0.6,1.1c-0.5,2.3-1.1,4.6-1.6,6.9c-0.1,0.3-0.1,0.7-0.2,1s-0.3,0.7,0.2,0.9
			c-0.5,0.1-1,0.1-1.5,0c0.2-0.6,0.3-1.1,0.3-1.7c0.8-2.5,1.2-5,1.8-7.5c0.1-0.5-0.2-0.5-0.5-0.5H51C51,67.8,51,67.7,51,67.7z"/>
		<path class="st13" d="M66.8,67.8c0.5-0.1,1-0.1,1.5,0c-0.1,0.3-0.2,0.5-0.1,0.8c0.3,2.4,0.6,4.7,0.8,7.1c0.1,0.6,0.2,1.2,0.2,1.8
			c-0.4,0.1-0.8,0.1-1.2,0v-1.8c-0.1-0.2-0.1-0.4-0.2-0.7c-0.2-1.8-0.3-3.6-0.6-5.3C67.2,69.1,67.4,68.3,66.8,67.8z"/>
		<path class="st13" d="M62.6,67.8c0.5-0.1,1-0.1,1.5,0C64,68,64,68.3,64,68.6v8.9c-0.4,0.1-0.8,0.1-1.2,0v-1.8
			c0-0.1,0.1-0.2,0.1-0.3v-7.1C62.9,68.1,62.8,67.9,62.6,67.8z"/>
		<path class="st13" d="M74.4,75.7c0,0.6,0.1,1.3,0.2,1.9c-0.3,0.1-0.7,0.1-1.1,0c0-0.6-0.1-1.3-0.3-1.8c-0.2-1.8-0.8-3.5-1.1-5.3
			c-0.1-0.9-0.3-1.8-0.8-2.6c0.5-0.1,1-0.1,1.5,0c-0.4,0.8,0.1,1.6,0.2,2.3C73.4,72,73.9,73.9,74.4,75.7z"/>
		<path class="st13" d="M58.5,67.8c0.5-0.1,1-0.1,1.5,0c-0.4,1.2-0.6,2.4-0.7,3.7c-0.2,1.4-0.3,2.8-0.5,4.2c0.2,0.6-0.4,1.2-0.2,1.9
			c-0.3,0.1-0.7,0.1-1.1,0l0.3-1.8c0-1.8,0.4-3.6,0.6-5.3C58.7,69.5,58.7,68.6,58.5,67.8z"/>
		<path class="st12" d="M57.9,75.7l-0.3,1.8h-4c-0.4-0.2-0.3-0.5-0.2-0.9s0.1-0.7,0.2-1L57.9,75.7z"/>
		<path class="st12" d="M73.2,75.7c0.2,0.6,0.4,1.2,0.3,1.8h-4.3c0-0.6-0.1-1.2-0.2-1.8L73.2,75.7z"/>
		<path class="st12" d="M58.6,77.6c-0.2-0.6,0.3-1.2,0.2-1.9h4v1.8L58.6,77.6z"/>
		<path class="st12" d="M64,77.5v-1.8h4v1.8H64z"/>
		<path class="st12" d="M52.3,75.8c0,0.6-0.1,1.1-0.3,1.7h-1.8c-0.8-0.2-1.3-1-1.1-1.8h0.1C50.2,75.7,51.3,75.7,52.3,75.8z"/>
		<path class="st5" d="M79.8,34.5l-0.1-0.2L79.8,34.5z"/>
		<path class="st14" d="M49.6,49.6h7c1,0.1,2.1-0.3,2.8,0.9c0.4,0.8,0.1,1.7-0.7,2.1c-0.3,0.2-0.7,0.2-1.1,0.1H33.3
			c-0.8,0.1-1.5-0.3-1.9-1.1v-1.1c0.4-0.7,1.2-1.2,2-1.1h12.6L49.6,49.6z"/>
		<path class="st6" d="M27.7,74H11.5c-0.8,0-1.1-0.2-1-1s0-1.7,0.1-2.5h17.2V74z"/>
		<path class="st6" d="M62.5,36.9c-0.7-0.8-1.1-1.8-1.2-2.8c-0.1-0.2-0.1-0.4-0.1-0.6s-0.1-0.6-0.5-0.6s-0.4,0.3-0.4,0.6
			C60.1,34,60,34.6,59.9,35c-0.4,2-2.2,3.5-4.2,3.7v-7.6c0.2-0.1,0.5-0.1,0.5-0.4s-0.3-0.3-0.5-0.4v-3.6l7,5V36
			C62.6,36.3,62.7,36.7,62.5,36.9z"/>
		<path class="st11" d="M24.8,63.7c0,0.3-0.2,0.4-0.4,0.4c-0.3,0.1-0.5,0.1-0.8,0.2c-2.1,0.2-3.8,1.9-4,4.1
			c-0.1,0.4,0.1,1.1-0.5,1.1s-0.4-0.7-0.5-1.1c-0.2-2.1-1.9-3.7-3.9-4c-0.3,0-0.6-0.1-0.9-0.2c-0.3-0.1-0.4-0.2-0.3-0.4
			c0-0.2,0.2-0.3,0.3-0.3c0.3,0,0.5-0.1,0.8-0.2c2.2-0.2,3.9-1.9,4.1-4.1c0.1-0.4-0.1-1.1,0.5-1.1s0.5,0.7,0.5,1.1
			c0.2,2.2,2,3.9,4.2,4C24.6,63.3,24.8,63.4,24.8,63.7z"/>
		<path class="st11" d="M55.7,30.3c0.2,0.1,0.5,0.1,0.5,0.4s-0.4,0.3-0.5,0.4c-2.5,0.4-3.3,1.1-3.8,3.6c-0.1,0.3,0,0.8-0.4,0.8
			S51,35.1,51,34.8c-0.1-2-1.7-3.5-3.7-3.6c-0.1,0-0.3-0.1-0.4-0.1c-0.1,0-0.4-0.1-0.4-0.3s0.2-0.3,0.4-0.4s0.4-0.1,0.6-0.1
			c1.8-0.2,3.2-1.6,3.4-3.3c0.1-0.4,0-1,0.4-1.1s0.4,0.6,0.5,1.1C52.3,29,53.3,29.8,55.7,30.3z"/>
		<path class="st14" d="M40,53.6h-7.3c-0.8,0-1.1-0.2-1.1-1.1v-9c0-0.8,0.3-1.1,1.1-1.1h14.5c0.8,0,1.1,0.4,1.1,1.2v8.9
			c0,1-0.2,1.1-1.2,1.1L40,53.6z"/>
		<path class="st10" d="M59.3,51.9c0.2-0.5,0.2-0.9,0-1.4H60c0.7,0,1,0.3,1,1c-0.1,2.4-1.3,4.6-3.2,6c-0.3,0.2-0.6,0.4-0.9,0.6
			c-0.9,0.4-1.8,0.7-2.7,0.9h-17c-4-0.2-7.1-3.3-7.4-7.3c-0.1-1.1,0.4-1.5,1.6-1.1v1.1c0,1.7,0.8,3.4,2.2,4.4c0.9,1,2.2,1.5,3.5,1.5
			h16.4c0.5,0,1-0.1,1.5-0.4c0.8-0.2,1.6-0.6,2.1-1.2c0.4-0.3,0.7-0.6,1-1C59,54.1,59.4,53,59.3,51.9z"/>
		<path class="st13" d="M33.2,57.8c0.8,0,1.6,0.6,1.6,1.5c0,0.8-0.6,1.6-1.5,1.6c-0.8,0-1.6-0.6-1.6-1.5c0,0,0,0,0,0
			C31.7,58.6,32.3,57.9,33.2,57.8z"/>
		<path class="st15" d="M52.3,75.8c-1.1-0.2-2.1-0.2-3.2-0.2c0.5-2.6,1.1-5.3,1.8-7.8h2.7c0.3,0,0.6,0,0.5,0.5
			C53.5,70.8,53.1,73.4,52.3,75.8z"/>
		<path class="st5" d="M60.3,71.8c0.9-0.2,1.8-0.5,2.7-0.9c-0.1,1.1-0.2,2.1-0.3,3.2h-2c0-0.6,0.2-1.1,0.2-1.7
			C60.9,72,60.7,71.8,60.3,71.8z"/>
		<path class="st16" d="M63.5,57.9c-0.6,0.1-1.2,0.1-1.8,0V32c-0.1-0.9,0.3-1.7,1.1-2.1c0.5,0.8,0.7,1.8,0.6,2.7v24.2
			C63.3,57.1,63.3,57.6,63.5,57.9z"/>
		<path class="st15" d="M73.2,75.7H69l-0.8-7.1c-0.1-0.3,0-0.6,0.1-0.8h3c0.4,0.8,0.7,1.7,0.7,2.6C72.5,72.1,72.9,73.9,73.2,75.7z"
			/>
		<path class="st15" d="M57.9,75.7h-4.3c0.5-2.3,1.1-4.6,1.6-6.9c0.1-0.4,0.1-0.9,0.6-1.1h2.7c0.2,0.9,0.2,1.7,0,2.6
			C58.3,72.1,57.9,73.9,57.9,75.7z"/>
		<path class="st15" d="M62.8,75.7h-4c0.2-1.4,0.4-2.8,0.5-4.2c0.1-1.3,0.3-2.5,0.7-3.7h2.7c0.2,0.1,0.3,0.3,0.3,0.6v7.1
			C62.9,75.5,62.8,75.6,62.8,75.7z"/>
		<path class="st15" d="M68,75.7h-4v-7.1c0-0.3,0-0.6,0.1-0.8h2.7c0.6,0.5,0.3,1.3,0.4,1.9c0.3,1.7,0.4,3.5,0.6,5.3
			C67.9,75.2,67.9,75.4,68,75.7z"/>
		<path class="st15" d="M74.4,75.7c-0.6-1.8-1-3.7-1.4-5.6c-0.2-0.8-0.7-1.5-0.2-2.3h1.6l0.2,0.1c0.4,2,0.9,4,1.3,5.9
			C76.2,75,75.6,75.7,74.4,75.7z"/>
		<path class="st13" d="M74.6,67.9l-0.2-0.1C74.5,67.7,74.5,67.7,74.6,67.9L74.6,67.9z"/>
		<path class="st3" d="M55.1,57.3c-0.5,0.2-1,0.4-1.5,0.4H37.3c-1.4,0-2.7-0.6-3.6-1.6c-0.1-1.1-0.2-2.2-0.3-3.3h22.1
			C55.6,54.3,55.1,55.7,55.1,57.3z"/>
		<path class="st4" d="M39.5,65.6c0.1,1.1,0.2,2.2,0.3,3.3c-1.4-1-2.2-2.7-2.2-4.4C38,65.2,38.7,65.7,39.5,65.6z"/>
	</g>
</g>
<path class="st17" d="M46.9,30.4c0.2,0,0.4-0.1,0.6-0.1c1.8-0.2,3.2-1.6,3.4-3.3c-0.2,1.8-1.6,3.2-3.4,3.3
	C47.3,30.3,47.1,30.3,46.9,30.4c-0.2,0-0.4,0.1-0.4,0.4l0,0C46.5,30.5,46.7,30.4,46.9,30.4z"/>
<path class="st17" d="M3,37.4c-0.1,0-0.3-0.1-0.4-0.2C2.7,37.3,2.9,37.4,3,37.4z"/>
<path class="st17" d="M51.3,25.9c-0.5,0-0.4,0.7-0.4,1.1C51,26.6,50.9,25.9,51.3,25.9z"/>
<path class="st17" d="M2.3,37.1l-0.4-0.2L2.3,37.1z"/>
<path class="st17" d="M52.3,33.2c0.6-1.3,1.5-1.8,3.3-2.1l0,0C53.8,31.4,52.9,31.9,52.3,33.2z"/>
<path class="st17" d="M51.4,35.5c-0.4,0-0.4-0.4-0.4-0.7c-0.1-1-0.6-2-1.4-2.7c0.8,0.7,1.3,1.7,1.4,2.7C51,35.1,51,35.6,51.4,35.5
	c0.2,0,0.3-0.1,0.4-0.3C51.7,35.4,51.6,35.5,51.4,35.5z"/>
<path class="st17" d="M60.8,33c0.2,0.1,0.3,0.2,0.3,0.4C61.1,33.2,61,33.1,60.8,33z"/>
<path class="st17" d="M46.5,30.8c0,0.1,0.1,0.2,0.3,0.2C46.7,31,46.6,30.9,46.5,30.8z"/>
<path class="st17" d="M39.6,13.3L39.6,13.3c0.1-0.1,0.1-0.1,0.2-0.1C39.7,13.2,39.6,13.3,39.6,13.3z"/>
<path class="st17" d="M1.6,36.6c-0.1-0.1-0.2-0.2-0.3-0.3C1.4,36.4,1.5,36.5,1.6,36.6z"/>
<path class="st17" d="M67.2,39.4L67.2,39.4c0-0.6-0.7-0.5-1.1-0.6c-0.3,0-0.7-0.1-1-0.2l0,0c0.3,0.1,0.7,0.2,1,0.2
	C66.5,38.9,67.1,38.9,67.2,39.4z"/>
<path class="st17" d="M60.3,33.3c0-0.2,0.2-0.3,0.4-0.3l0,0C60.5,32.9,60.3,33.1,60.3,33.3C60.3,33.3,60.3,33.3,60.3,33.3z"/>
<path class="st17" d="M63.3,32.2L63.3,32.2L63.3,32.2L63.3,32.2z"/>
<path class="st17" d="M60.2,45.4c-0.1-0.3-0.2-0.7-0.2-1.1c-0.2-1.5-1-2.8-2.3-3.5c1.3,0.8,2.1,2.1,2.3,3.6
	C60.1,44.8,60.1,45.1,60.2,45.4c0,0.5,0.1,0.5,0.4,0.6c0.1,0,0.2,0,0.2-0.1c-0.1,0-0.1,0-0.2,0C60.3,45.9,60.3,45.7,60.2,45.4z"/>
<path class="st17" d="M61.8,31.1l-6.1-4.4l0,0L61.8,31.1L61.8,31.1z"/>
<path class="st17" d="M1,36.1c-0.1-0.2-0.3-0.4-0.4-0.6C0.7,35.7,0.9,35.9,1,36.1z"/>
<path class="st17" d="M32.8,42.5h14.5c0.2,0,0.4,0,0.5,0.1c-0.2-0.1-0.4-0.1-0.5-0.1L32.8,42.5c-0.8,0-1.1,0.3-1.1,1V49l0,0v-5.4
	C31.7,42.8,32,42.5,32.8,42.5z"/>
<path class="st17" d="M51.6,26c0.1,0.3,0.2,0.7,0.2,1C51.8,26.6,51.8,26.2,51.6,26z"/>
<path class="st17" d="M59.9,35c0.1-0.5,0.2-1.1,0.3-1.5c0-0.1,0-0.1,0-0.2v0.2C60.1,34,60,34.5,59.9,35c-0.4,2-2.2,3.5-4.2,3.7l0,0
	C57.7,38.5,59.5,37,59.9,35z"/>
<path class="st17" d="M0.2,34.5c0.1,0.3,0.2,0.6,0.3,0.8C0.4,35,0.3,34.8,0.2,34.5z"/>
<path class="st17" d="M18.1,28.7c-3.7,2.7-7.4,5.3-11.1,8C10.7,34,14.5,31.4,18.1,28.7z"/>
<path class="st17" d="M3.8,37.6l-0.4-0.1L3.8,37.6z"/>
<path class="st17" d="M54.5,39.8c-0.1,0-0.3-0.1-0.3-0.2C54.2,39.8,54.4,39.9,54.5,39.8c0.4,0.1,0.8,0.2,1.2,0.3l0,0
	C55.3,40,54.9,40,54.5,39.8z"/>
<path class="st17" d="M4.7,37.6L4.7,37.6z"/>
<path class="st17" d="M6.3,37.2c-0.1,0-0.1,0.1-0.2,0.1C6.2,37.2,6.2,37.2,6.3,37.2z"/>
<path class="st17" d="M5.4,37.5L5.4,37.5l-0.3,0.1L5.4,37.5z"/>
<path class="st2" d="M27.7,39.8c0-1.4,0.2-1.6,1.5-1.6h21.6c1.3,0,1.5,0.2,1.5,1.5V49h3.5v-8.8c-0.4-0.1-0.8-0.2-1.2-0.3
	c-0.2,0-0.3-0.1-0.3-0.3c0-0.1,0-0.1,0-0.2c0-0.2,0.1-0.4,0.3-0.5l1.2-0.3l0,0v-7.5c-1.8,0.3-2.7,0.8-3.3,2.1
	c-0.2,0.5-0.4,1-0.5,1.6c0,0.1,0,0.3-0.1,0.5c0,0.2-0.2,0.3-0.3,0.3c-0.4,0-0.4-0.4-0.4-0.7c-0.2-2-1.7-3.5-3.7-3.6
	c-0.1,0-0.3-0.1-0.4-0.1c0,0-0.1,0-0.1,0c-0.1,0-0.2-0.1-0.3-0.2c0,0,0,0,0-0.1l0,0c0-0.3,0.2-0.3,0.4-0.4c0.2-0.1,0.4-0.1,0.6-0.1
	c1.8-0.2,3.2-1.6,3.4-3.3c0.1-0.4-0.1-1.1,0.4-1.1c0.1,0,0.2,0,0.3,0.1c0.2,0.2,0.2,0.7,0.2,1c0.4,2.1,1.4,2.9,3.8,3.4v-3.7l0,0l0,0
	c-5.1-3.6-10.1-7.3-15.2-10.9c-0.5-0.4-0.8-0.1-1.2,0.2L14.5,33.8c-1.3,1-2.7,1.9-4,2.9V49h17.2L27.7,39.8z"/>
<polygon class="st3" points="79.8,34.5 79.7,34.3 79.8,34.5 "/>
<path class="st3" d="M0.7,35.5c0.1,0.2,0.2,0.4,0.4,0.6l0.2,0.3c0.1,0.1,0.2,0.2,0.3,0.3c0.1,0.1,0.2,0.2,0.3,0.2l0.3,0.2l0.4,0.2
	c0.1,0.1,0.3,0.1,0.4,0.2c0.1,0,0.3,0.1,0.4,0.1l0.4,0.1c0.1,0,0.3,0,0.4,0h0.4c0.2,0,0.3,0,0.5-0.1l0.3-0.1
	c0.2-0.1,0.4-0.1,0.6-0.2c0.1,0,0.1-0.1,0.2-0.1c0.3-0.1,0.5-0.3,0.8-0.5c3.7-2.7,7.4-5.3,11.1-8l16.6-11.9c1.6-1.2,3.2-2.3,4.8-3.5
	l0,0c0.1-0.1,0.1-0.1,0.2-0.1c0.3-0.1,0.5,0,0.7,0.2l12.5,9l10.2,7.3l0.2-0.1c1.1,0.4,1.4,0.6,1.5,1.3l7.9,5.7
	c1.4,1.1,3.2,1.3,4.8,0.5c0.8-0.4,1.4-1,1.8-1.8c0.1-0.2,0.2-0.3,0.4-0.5v-0.3l-0.1-0.2c-0.2-0.9-0.8-1.7-1.6-2.2l-6.5-4.6L42.8,6.7
	c-1.6-1.3-3.9-1.3-5.5,0C29.2,12.6,21,18.4,12.9,24.2L2.1,31.9c-1,0.6-1.6,1.5-1.9,2.6c0.1,0.3,0.2,0.6,0.3,0.8
	C0.6,35.4,0.6,35.4,0.7,35.5z"/>
<path class="st4" d="M50.8,38.3H29.2c-1.4,0-1.5,0.2-1.5,1.6V49h4v-5.5c0-0.7,0.3-1.1,1.1-1.1h14.5c0.2,0,0.4,0,0.5,0.1
	c0.4,0.1,0.6,0.5,0.6,1.1V49h3.8v-9.3C52.2,38.4,52.1,38.3,50.8,38.3z"/>
<path class="st5" d="M40.5,15.8c5,3.7,10.1,7.3,15.2,10.9l6.1,4.4c0.2-0.5,0.5-1,1-1.2c0.4,0.7,0.6,1.5,0.6,2.3l0,0
	c0-0.8-0.2-1.6-0.6-2.4l0.5-0.1L53,22.4l-12.5-9c-0.2-0.2-0.5-0.3-0.7-0.2c-0.1,0-0.2,0.1-0.2,0.1l0,0c-1.6,1.2-3.2,2.3-4.8,3.5
	L18.1,28.7c-3.7,2.7-7.4,5.3-11.1,8c-0.2,0.2-0.5,0.4-0.8,0.5c-0.1,0-0.1,0.1-0.2,0.1c-0.2,0.1-0.4,0.2-0.6,0.2H5.4H5.1
	c-0.2,0-0.3,0.1-0.5,0.1H4.2c-0.1,0-0.3,0-0.4,0l-0.4-0.1c-0.1,0-0.3-0.1-0.4-0.1c-0.1,0-0.3-0.1-0.4-0.2l-0.4-0.2l-0.4-0.2
	c-0.1-0.1-0.2-0.2-0.3-0.2c-0.1-0.1-0.2-0.2-0.3-0.3L1,36.1c-0.1-0.2-0.3-0.4-0.4-0.6c0-0.1-0.1-0.1-0.1-0.2
	c-0.1-0.3-0.2-0.6-0.3-0.8c-0.3,0.8-0.3,1.6,0,2.4c0.1,0.5,0.4,1,0.7,1.4c1.5,1.9,4.2,2.2,6.1,0.8c1.1-0.8,2.2-1.6,3.4-2.4
	c1.3-1,2.6-2,4-2.9L39.3,16C39.7,15.7,40,15.4,40.5,15.8z"/>
<path class="st5" d="M72.8,36.6L65,31c0,0.3,0.1,0.6,0.1,0.9v1.5c1.6,1.1,3.1,2.2,4.6,3.4c1.2,0.7,2.3,1.4,3.3,2.2
	c1,0.8,2.3,1.1,3.6,0.8c2.3-0.4,4-3,3.3-5.1c-0.1,0.1-0.3,0.3-0.4,0.5c-0.1,0.2-0.3,0.5-0.5,0.7c-0.4,0.5-0.8,0.9-1.4,1.1
	C76.1,37.9,74.2,37.7,72.8,36.6z"/>
<path class="st6" d="M61.4,44.1c-0.1,0.5-0.2,0.9-0.3,1.3c0,0.2-0.1,0.4-0.3,0.5C60.8,46,60.7,46,60.6,46c-0.3,0-0.3-0.1-0.4-0.5
	s-0.1-0.7-0.2-1.1c-0.2-1.5-1-2.8-2.3-3.6c-0.6-0.4-1.3-0.6-2-0.7V49h6v-5.8C61.6,43.5,61.5,43.8,61.4,44.1z"/>
<path class="st7" d="M66.1,38.8c0.4,0.1,1.1,0,1.1,0.6l0,0c0,0.6-0.7,0.5-1.1,0.6c-0.3,0-0.7,0.1-1,0.2V49h2.8v-4.2
	c-0.1-0.9,0.3-1.7,1.1-2.1l0.7-0.2v-5.7c-1.5-1.2-3-2.3-4.6-3.4v5.3C65.4,38.7,65.8,38.8,66.1,38.8z"/>
<path class="st7" d="M63.3,32.6c0-0.1,0-0.2,0-0.4l0,0C63.3,32.3,63.3,32.5,63.3,32.6z"/>
<path class="st10" d="M65,31c-0.1-0.7-0.5-1-1.5-1.3l-0.2,0.1l-0.5,0.1c0.4,0.7,0.6,1.5,0.6,2.3l0,0c0,0.1,0,0.2,0,0.4v5.2
	c0.5,0.4,1.1,0.7,1.7,0.9v-6.9C65.1,31.5,65,31.3,65,31z"/>
<path class="st10" d="M63.3,41.1V49H65v-8.8C64.4,40.4,63.8,40.7,63.3,41.1z"/>
<path class="st11" d="M54.5,39.8c0.4,0.1,0.8,0.2,1.2,0.3c0.7,0.1,1.4,0.3,2,0.7c1.3,0.8,2.1,2.1,2.3,3.5c0,0.4,0.1,0.7,0.2,1.1
	c0.1,0.2,0.1,0.5,0.4,0.5c0.1,0,0.1,0,0.2,0c0.2-0.1,0.2-0.3,0.3-0.5c0.1-0.5,0.2-0.9,0.3-1.3c0.1-0.3,0.1-0.6,0.3-0.9v-7.5
	c-0.2-0.5-0.4-1-0.4-1.5c-0.1-0.2-0.1-0.4-0.1-0.6c0,0,0-0.1,0-0.1c0-0.2-0.2-0.4-0.3-0.4c0,0-0.1,0-0.1,0c-0.2,0-0.4,0.2-0.4,0.3
	c0,0,0,0,0,0c0,0.1,0,0.1,0,0.2c-0.1,0.5-0.2,1-0.3,1.5c-0.4,2-2.2,3.5-4.2,3.7l0,0L54.5,39c-0.2,0-0.4,0.2-0.4,0.4
	c0,0.1,0,0.1,0,0.2C54.2,39.7,54.3,39.8,54.5,39.8z"/>
<path class="st11" d="M65,40.2c0.3-0.1,0.7-0.2,1-0.2c0.4-0.1,1.1,0,1.1-0.6l0,0c0-0.6-0.7-0.5-1.1-0.6c-0.3,0-0.7-0.1-1-0.2
	c-0.6-0.2-1.2-0.5-1.7-0.9v3.3C63.8,40.7,64.4,40.4,65,40.2z"/>
<line class="st17" x1="79.8" y1="34.5" x2="79.7" y2="34.3"/>
<path class="st6" d="M59.9,35c0.1-0.5,0.2-1,0.3-1.5v-0.2c0,0,0,0,0,0c0-0.2,0.2-0.4,0.4-0.4c0,0,0,0,0,0l0,0c0,0,0.1,0,0.1,0
	c0.2,0.1,0.3,0.2,0.3,0.4c0,0,0,0.1,0,0.1c0,0.2,0.1,0.4,0.1,0.6c0.1,0.5,0.2,1.1,0.4,1.5V32c-0.1-0.3-0.1-0.6,0-0.9l-6.1-4.4l0,0
	v3.6l0,0c0.2,0.1,0.5,0.1,0.5,0.4s-0.4,0.3-0.5,0.4l0,0v7.6l0,0C57.7,38.6,59.5,37.1,59.9,35z"/>
<path class="st11" d="M55.7,31.1L55.7,31.1c0.2-0.1,0.5-0.1,0.5-0.4s-0.3-0.3-0.5-0.4l0,0c-2.4-0.5-3.4-1.3-3.8-3.4
	c0-0.3-0.1-0.7-0.2-1c-0.1-0.1-0.2-0.1-0.3-0.1c-0.4,0.1-0.4,0.7-0.4,1.1c-0.2,1.8-1.6,3.2-3.4,3.3c-0.2,0-0.4,0.1-0.6,0.1
	s-0.4,0.2-0.4,0.4l0,0c0,0,0,0,0,0.1c0,0.1,0.1,0.2,0.3,0.2c0,0,0.1,0,0.1,0c0.1,0.1,0.3,0.1,0.4,0.1c2,0.1,3.6,1.7,3.7,3.7
	c0,0.3,0,0.7,0.4,0.7c0.2,0,0.3-0.1,0.3-0.3c0-0.2,0-0.3,0.1-0.5c0.1-0.5,0.3-1.1,0.5-1.6C52.9,31.9,53.8,31.4,55.7,31.1z"/>
<path class="st14" d="M47.8,42.6c-0.2-0.1-0.3-0.1-0.5-0.1H32.8c-0.8,0-1.1,0.3-1.1,1.1V49h16.7v-5.3C48.4,43.1,48.2,42.7,47.8,42.6
	z"/>
<path class="st16" d="M63.3,41.1v-8.5c0-0.1,0-0.2,0-0.4l0,0c0-0.8-0.2-1.6-0.6-2.3c-0.5,0.3-0.8,0.7-1,1.2l0,0
	c-0.1,0.3-0.1,0.6,0,0.9v17h1.6L63.3,41.1z"/>
</svg>
