<svg width="14" height="14" viewBox="0 0 14 14" fill="none" xmlns="http://www.w3.org/2000/svg">
<path d="M13.031 5.44234L11.8643 4.859C11.6485 4.754 11.3802 4.83567 11.2752 5.0515C11.1643 5.27317 11.2518 5.53567 11.4677 5.64067L12.3952 6.1015V8.89567L10.2077 8.9015V2.9165C10.2077 1.74984 9.42601 1.1665 8.45768 1.1665H3.79102C2.82268 1.1665 2.04102 1.74984 2.04102 2.9165V12.3957H1.16602C0.926849 12.3957 0.728516 12.594 0.728516 12.8332C0.728516 13.0723 0.926849 13.2707 1.16602 13.2707H11.0827C11.3218 13.2707 11.5202 13.0723 11.5202 12.8332C11.5202 12.594 11.3218 12.3957 11.0827 12.3957H10.2077V9.7765L12.8327 9.77067C13.0777 9.77067 13.2702 9.57234 13.2702 9.33317V5.83317C13.2702 5.66984 13.1768 5.51817 13.031 5.44234ZM3.49935 4.019C3.49935 3.20817 3.99518 2.9165 4.60185 2.9165H7.65268C8.25352 2.9165 8.74935 3.20817 8.74935 4.019V4.7365C8.74935 5.5415 8.25352 5.83317 7.64685 5.83317H4.60185C3.99518 5.83317 3.49935 5.5415 3.49935 4.73067V4.019ZM3.79102 7.14567H5.54102C5.78018 7.14567 5.97852 7.344 5.97852 7.58317C5.97852 7.82234 5.78018 8.02067 5.54102 8.02067H3.79102C3.55185 8.02067 3.35352 7.82234 3.35352 7.58317C3.35352 7.344 3.55185 7.14567 3.79102 7.14567Z" fill="#90A3BF"/>
</svg>
