<?xml version="1.0" encoding="utf-8"?>
<!-- Generator: Adobe Illustrator 24.1.2, SVG Export Plug-In . SVG Version: 6.00 Build 0)  -->
<svg version="1.1" id="Layer_1" xmlns="http://www.w3.org/2000/svg" xmlns:xlink="http://www.w3.org/1999/xlink" x="0px" y="0px"
	 viewBox="0 0 80 80" style="enable-background:new 0 0 80 80;" xml:space="preserve">
<style type="text/css">
	.st0{fill:#D5DCF0;}
	.st1{fill:#C1C6E5;}
	.st2{fill:#3E59A0;}
	.st3{fill:#FDDC44;}
	.st4{fill:#5EADE0;}
	.st5{fill:#A4B1DA;}
	.st6{fill:#7EC0EA;}
	.st7{fill:#58435F;}
	.st8{fill:#EAEEF8;}
	.st9{fill:#2C448C;}
	.st10{fill:#F69363;}
	.st11{fill:#D2734C;}
	.st12{fill:#FCC7AC;}
	.st13{fill:#F8A97C;}
	.st14{fill:#5272B5;}
</style>
<path class="st0" d="M56.1,7.8c-0.1-0.6-0.2-1.2-0.3-1.9c0-1.3,1-2.3,2.3-2.3c0.5,0,0.9,0,1.4,0h5c0.2,0,0.4,0.1,0.5-0.1
	s-0.1-0.3-0.2-0.4c-0.3-0.3-0.3-0.6-0.3-1c0-0.7,0.5-1,0.8-1.4h1.1c1.1,0.2,2.1,0.6,3,1.2c0.6,0.5,1.2,1.1,1.7,1.7h-4.8
	c-1.3,0-1.4,0.2-1.1,1.4c-0.3,0.2-0.6,0.3-0.7,0.6C64.3,6.4,64.2,7,63.2,7c-0.4,0-0.7,0.4-0.7,1c0.1,0.5,0.5,0.9,1,0.8c0,0,0,0,0,0
	c0.7,0,0.9,0.3,0.9,0.9c0,0.1,0.1,0.2,0.1,0.4c0.1,0.4,0.5,0.5,0.8,0.6c-0.4,0.4-0.4,1.1,0,1.5c-0.7,0-1.3,0-2,0.1
	c-1.5,0.1-2.9,0.4-4.2,1c-1.4,0.4-1.8,0.1-2.2-1.4S56.3,9.2,56.1,7.8z"/>
<path class="st1" d="M65.2,0.6c-0.3,0.5-0.8,0.8-0.8,1.4c0,0.4,0,0.7,0.3,1C64.9,3.2,65,3.3,65,3.4s-0.3,0.1-0.5,0.1h-5
	c1-1.5,2.6-2.5,4.4-2.8c0.1,0,0.3,0,0.4-0.2H65.2z"/>
<path class="st0" d="M55.5,75.8c-3.2,1.5-6.6,2.6-10.1,3.1c-2.2,0.3-4.4,0.5-6.7,0.4c0-6.3,0-12.6,0-18.9c0.5-0.7,1-1.4,1.6-2
	c1.9-2,4.2-3.5,6.8-4.4c0.5-0.1,0.8-0.5,0.8-1c0-0.1,0-0.2-0.1-0.3c-0.1-0.4-0.2-0.8-0.3-1.2c-0.2-0.9,0.1-1.3,1-1.3h1.8
	c1.4,0,1.7-0.4,1.5-1.8c-0.3-1.9-0.4-3.9-0.6-5.8c2.4,1.1,4.9,2,7.5,2.8c2,0.5,3.6,2.2,4,4.2c1.4,5.6,2.4,11.3,2.9,17
	c0,0.7,0.1,1.4,0.3,2c-1.9,1.9-4.1,3.6-6.5,5.1c0.1-0.3,0.1-0.7,0.1-1c0-3.3,0.2-6.6-0.2-9.8c-0.1-1.3-0.6-2.5-1.5-3.5
	c-0.4-0.5-0.9-0.9-1.6-0.6c-0.6,0.3-0.9,0.9-0.9,1.6C55.5,65.5,55.5,70.6,55.5,75.8z"/>
<path class="st2" d="M13.4,68.6c-3-2.8-5.4-6.1-7.3-9.7C3.4,53.6,2,47.7,2,41.7c0.6-1,1.3-1.9,2.2-2.7c1.5-1,3.4-1.6,5.2-1.6
	c0.4,0.4,0.8,0.7,1.1,1.2c0.9,1,1.9,2,3,2.8c0.3,0.3,0.8,0.3,1.1,0.1c0,0,0,0,0.1-0.1c1.4-1.4,2.8-2.8,4-4.4c1.4-1.9,2.5-4,3.3-6.1
	c1.9,0.9,3.9,1.7,5.9,2.3c1.4,0.4,2.5,1.5,2.9,3c0.3,1.2,0.6,2.5,0.9,3.7l-0.1,0.2c-0.2,0-0.4,0-0.6,0.1c-1.1,0.9-2.5,1.4-3.3,2.7
	c-2.6,1-5.2,2-7.8,2.9c-1.6,0.5-2.9,1.9-3.3,3.6c-0.7,2.7-1.3,5.4-1.8,8.2C14.1,61.1,13.7,64.9,13.4,68.6z"/>
<path class="st3" d="M31.6,39.8c-0.3-1.2-0.6-2.5-0.9-3.7c-0.3-1.5-1.4-2.6-2.9-3c-2-0.6-4-1.4-5.9-2.3c0.1-0.3,0-0.7-0.3-0.9
	c-0.1,0-0.1,0-0.2-0.1c-0.7-0.2-1.2-0.9-2.1-0.7c-0.7-0.6-1.2-1.4-1.3-2.3l0.5-0.6c1.3-1.5,2-3.3,2.2-5.3l0.1-0.3
	c0.5,0.1,1.1-0.3,1.2-0.8c0,0,0,0,0-0.1c0.2-0.7,0.4-1.4,0.7-2.1c0.3-0.6,0.2-1.3-0.3-1.8c0-0.6,0.1-1.2,0.1-1.7c0-2,0.5-4,0-6
	C33,2.8,45.2,2.6,55.7,7.6l0.4,0.2c0.2,1.4,0.5,2.8,0.7,4.2l-1.6,2.7c-0.8,1.2-1,2.8-0.5,4.2c0.4,1.1,0.1,2.2-0.8,3
	c-1.3,1.1-1.6,3-0.6,4.5c0.4,0.7,0.6,1.4,0.5,2.2c-0.1,1.2,0.2,2.3,0.8,3.3c-1.1,0.5-2.1,0.9-3.3,1.2c-1.5,0.4-2.7,1.7-3,3.2
	c-0.3,1.2-0.6,2.4-0.8,3.6c-0.3-0.4-0.8-0.6-1.3-0.5c-0.4-0.7-0.7-1.5-1-2.3c1.2-1.3,2.1-2.8,2.8-4.4c0.5-1.4,0.8-2.8,1-4.2
	c0.7,0.2,1.4-0.3,1.6-1c0,0,0,0,0,0c0.3-1.2,0.8-2.3,1.1-3.5c0.4-0.8,0.1-1.7-0.7-2.1c-0.1,0-0.2-0.1-0.3-0.1c0-1.6,0.2-3.2,0.3-4.8
	c0.5-3.1-0.7-6.3-3.2-8.2c-4-3.1-8.5-3.6-13.3-2.1c-2.3,0.8-4.1,2.3-4.2,5c0,0.3-0.2,0.7-0.5,0.8c-0.7,0.4-1.3,1.1-1.5,1.9
	c-0.3,1-0.5,2.1-0.5,3.2c0,1.4,0.3,2.8,0.3,4.3c-0.8,0.1-1.4,0.8-1.3,1.7c0,0.1,0,0.2,0.1,0.3c0.2,1,0.8,2,1,3s0.6,1.5,1.8,1.6
	c0.1,2.5,1,5,2.5,7c0.5,0.5,0.9,1,1.2,1.6c-0.2,0.8-0.5,1.6-1,2.3C32.4,39.2,31.9,39.4,31.6,39.8z"/>
<path class="st4" d="M47.6,39.8c0.3-1.2,0.5-2.4,0.8-3.6c0.3-1.6,1.5-2.8,3-3.2c1.1-0.3,2.2-0.7,3.2-1.2c1.3-0.5,2.6-1.1,3.9-1.8
	c0.4,2.1,0.8,4.2,1.2,6.3c0,0.3,0.1,0.5,0.4,0.6c1.2,0.4,2.5,0.7,3.8,0.8c0.8,0.2,1.6,0.2,2.4,0.1c1.5-0.1,3-0.4,4.4-0.9
	c0.1,0.1,0.1,0.2,0.1,0.3c-0.7,3.8-1.4,7.6-2.2,11.5c-0.3,2.4,0.7,4.8,2.6,6.3c1,0.6,2.2,0.9,3.4,0.7c-1.2,3-2.7,5.8-4.7,8.4
	c-1.2,1.6-2.5,3.1-3.9,4.5c-0.2-0.6-0.3-1.3-0.3-2c-0.5-5.7-1.4-11.4-2.9-17c-0.4-2.1-2-3.7-4-4.2c-2.5-0.8-5-1.7-7.5-2.8
	c-1-1.1-2.2-1.9-3.6-2.6L47.6,39.8z"/>
<path class="st1" d="M27.7,42.7c0.8-1.2,2.1-1.8,3.3-2.7c0.2-0.1,0.4-0.2,0.6-0.1c0.3,0.1,0.3,0.4,0.4,0.7c0.7,2.1,1.6,4.1,2.6,6
	c0.2,0.4,0.6,0.8,0.6,1.3l-0.8-0.1c-1.4-0.4-2.9,0.4-3.3,1.8c0,0,0,0,0,0c-0.1,0.3-0.2,0.5,0.2,0.6c0.6,0.2,0.5,0.8,0.4,1.2
	s-0.2,0.7-0.3,1.1c-0.2,0.9-0.1,1.2,0.8,1.5c1.5,0.5,2.9,1.2,4.2,2.1c0.9,0.7,1.8,1.4,2.6,2.2v2c0,6.3,0,12.6,0,18.9
	c-5-0.1-10-1.2-14.6-3.3c0.3-0.2,0.2-0.6,0.2-0.9c0-3.9,0-7.8,0-11.6c0.3,0,0.4,0.2,0.6,0.4c0.9,0.8,2.1,1.2,3.3,1.1
	c2.8,0.1,5.1-2,5.3-4.7c0.1-2.8-2-5.1-4.7-5.3c-0.5,0-1,0-1.5,0.1c-1,0.2-2,0.7-2.8,1.4c-0.1-3.5,2-5.3,5.3-6.3h-1.5
	c-0.8,0-1.2-0.4-1.1-1.2s0.1-1.3,0.2-2C27.4,45.7,27.5,44.2,27.7,42.7z"/>
<path class="st5" d="M27.7,42.7c-0.1,1.5-0.3,2.9-0.4,4.4c-0.1,0.7-0.2,1.3-0.2,2s0.3,1.2,1.1,1.2h1.5c-3.3,1-5.4,2.8-5.3,6.3
	c-1,1.1-1.5,2.5-1.4,3.9c0.2,1.1,0.6,2.1,1.3,3c0,3.9,0,7.7,0,11.6c0,0.3,0.1,0.6-0.2,0.9c-3.2-1.4-6.2-3.3-8.9-5.6
	c-0.7-0.5-1.3-1.1-1.9-1.8c0.3-3.8,0.7-7.5,1.4-11.3c0.5-2.7,1-5.5,1.8-8.2c0.4-1.7,1.6-3.1,3.3-3.6C22.5,44.7,25.1,43.8,27.7,42.7z
	"/>
<path class="st6" d="M74.6,55.7c-1.2,0.1-2.4-0.1-3.4-0.7c-1.9-1.5-2.9-3.9-2.6-6.3c0.7-3.8,1.4-7.6,2.2-11.5c0-0.1,0-0.2-0.1-0.3
	c0.2-0.2,0.3-0.4,0.3-0.7l1.2-6.2c1.2,0.7,2.5,1.3,3.9,1.9c0.4,1.9,0.8,3.8,1,5.8c0.3,2.5,0.3,5.1,0.1,7.6c-0.3,3.3-1.1,6.5-2.3,9.6
	C74.8,55.2,74.7,55.4,74.6,55.7z"/>
<path class="st7" d="M76.1,31.8c-1.3-0.5-2.6-1.1-3.9-1.8c-1.2-0.6-2.2-1.7-2.6-3c0.8-1,1.5-2.1,2-3.3c0.5-1.1,0.8-2.3,1.2-3.4
	c0.5,0,1.1-0.3,1.2-0.8c0.3-0.8,0.5-1.6,0.7-2.5c0.2-0.6,0-1.2-0.4-1.5c-0.5-0.3-1.1-0.3-1.6,0c-0.3-0.6-0.9-1-0.8-1.8
	c1,0,1.4-0.3,1.7-1.1c0.1-0.2,0.1-0.5,0.2-0.7c0.6,1,1.2,2,1.8,3c0.8,1.2,0.9,2.7,0.5,4.1c-0.4,1.1-0.1,2.2,0.8,3
	c1.3,1.1,1.6,3,0.7,4.5c-0.4,0.7-0.6,1.6-0.5,2.4C77.1,29.8,76.7,31,76.1,31.8z"/>
<path class="st8" d="M73.8,11.8c-0.1,0.2-0.1,0.5-0.2,0.7c-0.2,0.8-0.7,1.1-1.7,1.1c-2.1-1-4.4-1.5-6.8-1.4c-0.4-0.4-0.4-1.1,0-1.5
	c0.4-0.1,0.8-0.2,0.9-0.8c0.3-0.4-0.3-1.3,0.8-1.1c0.5,0.1,1-0.3,1.1-0.9c0,0,0,0,0,0c0.1-0.5-0.4-1-1.1-1c-0.5,0-0.8-0.1-0.7-0.7
	c0-0.1,0-0.3-0.1-0.4C66,5.1,65.5,5.1,65.1,5c-0.4-1.2-0.2-1.4,1.1-1.4H71c0.7,0,1.3,0,2,0.1c1.1,0.4,1.8,1.5,1.6,2.7
	C74.4,8.2,73.9,10,73.8,11.8z"/>
<path class="st2" d="M22.5,8.1c0.6,2,0,4,0,6c0,0.6-0.1,1.2-0.1,1.7c-0.4-0.1-0.8-0.1-1.2,0.1c-0.4-0.7-0.7-1.4-0.9-2.2
	c-0.1-1.3-0.7-2.5-1.8-3.2c-1.4-1-3.1-1.5-4.8-1.4c-1.4-1.7-1.8-2.9-0.4-5.2c0.2-0.3,0.4-0.5,0.6-0.8c1.2,0,2.4,0.2,3.4,0.7
	C18.6,4.4,19.9,5.1,21,6C21.7,6.6,22.2,7.3,22.5,8.1z"/>
<path class="st1" d="M55.5,75.8c0-5.2,0-10.3,0-15.5c-0.1-0.7,0.3-1.3,0.9-1.6c0.8-0.3,1.2,0.1,1.6,0.6c0.9,1,1.4,2.2,1.5,3.5
	c0.3,3.3,0.1,6.5,0.2,9.8c0,0.3-0.1,0.7-0.1,1C58.3,74.5,56.9,75.2,55.5,75.8z"/>
<path class="st9" d="M13.9,3.1c-0.2,0.3-0.4,0.5-0.6,0.8c-1.3,2.3-1,3.5,0.4,5.2c-0.2,0.1-0.4,0.1-0.7,0.1c-1.1,0.1-2.2,0.4-3.2,1
	c-1.3,0.7-2.2,2-2.3,3.6l-0.9,2.1c-0.4-0.1-0.8-0.2-1.2-0.1C5.3,13.9,5,11.9,5,10C4.9,8.3,5.7,6.7,7.1,5.8c1.6-1.2,3.4-2.1,5.4-2.6
	C13,3.1,13.4,3.1,13.9,3.1z"/>
<path class="st0" d="M7.2,22.6C7.2,22,7.1,21.5,7,20.9c0.3,0,0.6,0,0.8-0.2c1.1-0.6,2.2-1.3,3.4-1.9h0.1c0,0.8,0.1,1.5,0.3,2.3
	c0.7,3,1.9,5.6,5,7c-0.7,0.5-1.5,0.7-2.4,0.8c-1.7,0-3.3-0.7-4.4-2C8.7,25.6,7.8,24.1,7.2,22.6z"/>
<path class="st9" d="M9.4,37.4c-1.9,0-3.7,0.6-5.2,1.6c-0.9,0.8-1.6,1.7-2.2,2.7c0-3.3,0.4-6.6,1.3-9.9l2.6-1.1
	c0.4,1,0.9,2.1,1.4,3.1C7.8,35.1,8.8,36.1,9.4,37.4z"/>
<path class="st10" d="M11.1,18.8C10,19.4,8.9,20,7.7,20.7c-0.2,0.2-0.5,0.2-0.7,0.2v-0.3c0-1.6-0.5-3.1-0.3-4.7l0.9-2.1
	C7.9,13,8.4,12.4,9,11.9c1.5-0.8,3.1-1.3,4.8-1.2c-0.4,0.3-0.9,0.5-1.3,0.8c-1.1,0.7-1.7,1.8-1.6,3.1C10.9,16,11.1,17.4,11.1,18.8z"
	/>
<path class="st3" d="M5.8,30.8l-2.6,1.1c0.9-3.3,2.2-6.4,4-9.3c0.5,1.6,1.4,3,2.5,4.3c-0.2,0.9-0.6,1.7-1.3,2.4
	C8.3,29,8,29,7.8,29.2c-0.5,0.3-1,0.5-1.5,0.7C6,30,5.7,30.3,5.8,30.7C5.8,30.7,5.8,30.7,5.8,30.8z"/>
<path class="st11" d="M6.6,15.9C6.5,17.5,7,19,7,20.6c-0.6,0.1-1.1-0.3-1.2-0.9c0,0,0,0,0,0C5.5,19,5.3,18.3,5,17.6
	c-0.3-0.6-0.1-1.3,0.4-1.8C5.8,15.7,6.2,15.7,6.6,15.9z"/>
<path class="st12" d="M65.2,12.1c2.3,0,4.7,0.5,6.8,1.4c-0.1,0.8,0.5,1.2,0.8,1.8c0.2,1.6,0.2,3.2,0,4.8c-0.4,1.1-0.7,2.3-1.2,3.4
	c-0.5,1.2-1.2,2.3-2,3.3c-0.5,0.5-1,0.9-1.6,1.3c-0.2,0.1-0.3,0.3-0.6,0.1c-0.8-0.4-1.4-0.9-2-1.6c-2.4-2.9-3.6-6.5-3.3-10.2
	c0-0.5,0.1-1,0.4-1.4c0.5-0.8,0.8-1.8,0.7-2.8C63.8,12.2,64.5,12.1,65.2,12.1z"/>
<path class="st13" d="M63.2,12.3c0.1,1-0.2,2-0.7,2.8c-0.2,0.4-0.4,0.9-0.4,1.4c-0.2,3.7,0.9,7.4,3.3,10.2c0.6,0.6,1.2,1.2,2,1.6
	c0.3,0.2,0.4,0,0.6-0.1c0.6-0.4,1.1-0.8,1.6-1.3c0.4,1.3,1.3,2.4,2.5,3.1L71,36.2c0,0.3-0.1,0.5-0.3,0.7c-1.4,0.4-2.9,0.7-4.4,0.9
	c-0.8,0.1-1.6,0.1-2.3-0.1c0.9-2.5,1.4-5.2,1.4-7.8c0-0.3,0.1-0.5-0.3-0.6c-1.4-0.4-2.8-1.2-3.8-2.3c-1-1.4-1.8-3-2.4-4.6l-0.7-2.2
	c-0.2-1.6-0.2-3.2,0-4.8c0.5-0.5,0.8-1.3,0.8-2C60.3,12.8,61.8,12.4,63.2,12.3z"/>
<path class="st7" d="M59,13.4c0,0.7-0.3,1.5-0.8,2c-0.4-0.4-1.1-0.4-1.5-0.1c-0.5,0.4-0.6,1.1-0.4,1.7c0.2,0.7,0.5,1.4,0.7,2.2
	c0.1,0.6,0.7,1,1.3,1l0.7,2.2c0.6,1.7,1.4,3.2,2.4,4.6c-0.5,1.3-1.4,2.4-2.7,3c-1.3,0.7-2.6,1.3-3.9,1.9c-0.7-0.9-1-2.1-0.8-3.3
	c0.1-0.8-0.1-1.5-0.5-2.2c-0.9-1.4-0.7-3.3,0.6-4.5c0.8-0.8,1.1-1.9,0.8-3c-0.5-1.4-0.3-2.9,0.5-4.2l1.6-2.8
	C57.2,13.5,57.6,13.8,59,13.4z"/>
<path class="st13" d="M66.1,5.7c0.1,0.1,0.1,0.3,0.1,0.4c-0.1,0.6,0.2,0.7,0.7,0.7c0.7,0,1.2,0.4,1.1,1c-0.1,0.5-0.5,1-1.1,0.9
	c0,0,0,0,0,0c-1.1-0.1-0.5,0.8-0.8,1.1c-0.2-0.3,0.2-0.8-0.3-1c-0.5-0.2-1.1-0.1-1.3,0.4c-0.1,0.2-0.1,0.3-0.1,0.5
	c0,0.1,0,0.1,0,0.2c-0.1-0.1-0.1-0.2-0.1-0.4c0.1-0.7-0.1-1-0.9-0.9c-0.5,0.1-0.9-0.3-1-0.8c0,0,0,0,0,0c-0.1-0.5,0.2-1,0.7-1
	c1.1,0.1,1.2-0.6,1.3-1.3c0,0.3,0,0.6,0,0.9s0,0.3,0.2,0.4c0.8,0.3,1.4-0.1,1.4-1C66.1,5.9,66.1,5.8,66.1,5.7z"/>
<path class="st11" d="M66.1,5.7c0,0.1,0,0.2,0,0.2c0,0.9-0.6,1.3-1.4,1c-0.2-0.1-0.2-0.2-0.2-0.4s0-0.6,0-0.9s0.4-0.5,0.7-0.6
	C65.5,5.1,66,5.1,66.1,5.7z"/>
<path class="st11" d="M64.4,10c0-0.1,0-0.1,0-0.2c0-0.6,0.4-1,1-1c0.2,0,0.3,0,0.5,0.1c0.4,0.2,0.1,0.7,0.3,1
	c-0.1,0.5-0.5,0.7-0.9,0.8C64.9,10.5,64.5,10.4,64.4,10z"/>
<path class="st8" d="M38.8,60.4c0-0.7,0-1.3,0-2c0.3-1.1,0.5-2.1,0.8-3.2c0.7-1.4,1.6-2.8,2.5-4.2c0.7-1,1.3-2,1.8-3.1
	c0.1-0.1,0.2-0.2,0.2-0.3c1.2-2.2,2.2-4.5,3-6.9c0.1-0.4,0.2-0.8,0.8-0.8c1.3,0.7,2.5,1.6,3.5,2.7c0.2,2,0.4,3.9,0.6,5.8
	c0.2,1.4-0.1,1.8-1.5,1.8h-1.8c-0.9,0-1.2,0.5-1,1.3c0.1,0.4,0.2,0.8,0.3,1.2c0.2,0.4,0,1-0.4,1.2c-0.1,0-0.2,0.1-0.3,0.1
	c-2.6,0.8-5,2.3-6.8,4.4C39.8,59.1,39.3,59.8,38.8,60.4z"/>
<path class="st14" d="M5.8,30.8c-0.1-0.3,0-0.7,0.3-0.9c0,0,0.1,0,0.1,0c0.5-0.2,1-0.5,1.5-0.7C8,29,8.2,29,8.4,29.2
	c0.7,2.3,1.8,4.4,3.3,6.2c0.5,0.7,1.1,1.4,1.7,2c0.4,0.4,0.6,0.4,1,0c2.3-2.3,4-5.1,5-8.2c0.9-0.2,1.4,0.5,2.1,0.7
	c0.4,0,0.6,0.4,0.6,0.7c0,0.1,0,0.1-0.1,0.2c-0.8,2.2-2,4.3-3.4,6.2c-1.2,1.5-2.6,3-4,4.4c-0.3,0.3-0.8,0.3-1.1,0.1c0,0,0,0-0.1-0.1
	c-1.1-0.8-2.1-1.7-3-2.8c-0.3-0.4-0.7-0.8-1.1-1.2c-0.6-1.3-1.6-2.3-2.2-3.6C6.7,32.8,6.3,31.8,5.8,30.8z"/>
<path class="st6" d="M35.1,48c0-0.5-0.4-0.9-0.6-1.3c-1-1.9-1.8-3.9-2.5-6c-0.1-0.3-0.1-0.6-0.4-0.7l0.1-0.2
	c0.3-0.4,0.8-0.6,1.3-0.6c0.3,0.3,0.6,0.5,0.8,0.8c1.3,1.3,2.6,2.7,3.9,4.1c0.2,1-0.4,1.7-0.7,2.5c-0.5,0.6-1,1.1-1.6,1.5h-0.1
	L35.1,48z"/>
<path class="st12" d="M49.2,28.3c-0.2,1.4-0.5,2.8-1,4.2c-0.7,1.6-1.7,3.1-2.8,4.4c-0.5,0.4-1,0.8-1.4,1.2c-0.6,0.6-1.1,0.4-1.7-0.1
	c-0.9-0.7-1.6-1.5-2.3-2.3c-1.5-1.9-2.4-4.2-2.7-6.6c-0.2-1.6-0.3-3.2-0.5-4.8c-0.3-1.2-0.2-2.5,0.3-3.6c0.5-1,0.8-2.1,0.7-3.2
	c-0.1-1.6,0.4-3.2,1.3-4.5c0.8,0,1.7-0.1,2.5-0.4c1.1-0.3,2.2-0.5,3.3-0.4c1.6,0,3.1,1.2,3.4,2.8c0.2,0.7,0.3,1.4,0.3,2.2
	c-0.2,1.3,0.1,2.5,0.8,3.6c0.2,0.3,0.3,0.7,0.3,1.1c-0.1,0.5,0.1,1,0.1,1.5C49.5,25,49.3,26.7,49.2,28.3z"/>
<path class="st13" d="M39.1,13c-1,1.3-1.5,2.9-1.4,4.5c0.1,1.1-0.2,2.2-0.7,3.2c-0.5,1.1-0.6,2.4-0.3,3.6c0.2,1.6,0.4,3.2,0.5,4.8
	c0.3,2.4,1.2,4.7,2.7,6.6c0.7,0.9,1.5,1.6,2.3,2.3c0.6,0.5,1.1,0.7,1.7,0.1c0.4-0.4,0.9-0.8,1.4-1.2c0.3,0.8,0.6,1.6,1,2.3l-4.7,4.8
	h-3.5c0.5-1.1,0.9-2.3,1.1-3.6c0.1-0.5,0.1-0.9-0.7-1c-0.6-0.1-1.2-0.2-1.7-0.5c-1.1-0.6-2.1-1.3-3-2.1c-0.3-0.6-0.8-1.1-1.2-1.6
	c-1.5-2-2.4-4.5-2.5-7c-0.2-2.2-0.8-4.3-0.6-6.6c0.2-0.9,0.8-1.7,1-2.5c0.3-1,0-2.1,0.1-3.2c0-2.2,1.7-3.9,3.9-3.9
	c0.1,0,0.2,0,0.3,0C36.3,12.3,37.7,12.5,39.1,13z"/>
<path class="st11" d="M39.1,13c-1.3-0.5-2.8-0.7-4.2-0.8c-2.1-0.1-4,1.5-4.2,3.6c0,0.1,0,0.2,0,0.3c-0.1,1.1,0.2,2.1-0.1,3.2
	c-0.3,0.9-0.8,1.6-1,2.5l-1.1-0.1c0-1.4-0.4-2.8-0.3-4.3c0-1.1,0.2-2.1,0.5-3.2c0.2-0.8,0.7-1.5,1.5-1.9c0.3-0.1,0.5-0.5,0.5-0.8
	c0.1-2.7,1.8-4.2,4.2-5c4.8-1.6,9.3-1,13.3,2.1c2.5,1.9,3.7,5.1,3.2,8.2c-0.2,1.6-0.3,3.2-0.3,4.8l-1.2,0.2
	c-0.1-0.4-0.2-0.7-0.3-1.1c-0.6-1.1-0.9-2.3-0.8-3.6c0-0.7-0.1-1.5-0.3-2.2c-0.3-1.6-1.8-2.8-3.4-2.8c-1.1-0.1-2.3,0.1-3.3,0.4
	C40.8,12.9,39.9,13,39.1,13z"/>
<path class="st13" d="M11.1,18.8c0-1.4-0.2-2.8-0.2-4.2c0-1.2,0.6-2.4,1.6-3.1c0.4-0.3,0.9-0.5,1.3-0.8c0.5-0.1,1.1,0,1.6,0.1
	c2,0.3,3.9,0.8,4.9,2.9c0.2,0.7,0.6,1.5,0.9,2.2c0.2,1.6-0.4,3.1-0.3,4.7l-0.1,0.3c-0.9-0.4-1.8-1-2.6-1.5c-2.1-1.2-4.6-1.5-6.9-0.6
	L11.1,18.8z"/>
<path class="st8" d="M11.2,18.8c2.3-0.8,4.8-0.6,6.9,0.6c0.9,0.5,1.7,1.1,2.6,1.5c-0.1,1.9-0.9,3.8-2.2,5.3l-0.5,0.6
	c-0.5,0.5-1,0.9-1.6,1.2c-3-1.3-4.3-4-5-7C11.3,20.3,11.2,19.5,11.2,18.8z"/>
<path class="st10" d="M16.5,28c0.6-0.3,1.1-0.8,1.6-1.2c0.1,0.9,0.6,1.8,1.3,2.3c-1,3.1-2.7,5.9-5,8.2c-0.4,0.4-0.6,0.4-1,0
	c-0.6-0.6-1.2-1.3-1.7-2c0.2,0,0.3-0.2,0.4-0.3c1.2-1.8,1.9-4,2-6.2C15,28.7,15.8,28.5,16.5,28z"/>
<path class="st6" d="M41.7,44.1l4.7-4.8c0.5-0.1,1,0.1,1.3,0.5l0.2,0.2c-0.5,0-0.6,0.4-0.8,0.8c-0.8,2.4-1.8,4.7-3,6.9
	c-0.1,0.1-0.1,0.2-0.2,0.3c-0.6-0.3-0.8-1.1-1.5-1.2c0.1-0.3,0-0.6-0.2-0.9C41.8,45.4,41.6,44.7,41.7,44.1z"/>
<path class="st10" d="M33.9,36.9c0.9,0.8,1.9,1.5,3,2.1c0.5,0.2,1.1,0.4,1.7,0.5c0.7,0.1,0.7,0.5,0.7,1c-0.2,1.2-0.5,2.4-1.1,3.5
	h-0.5c-1.3-1.4-2.6-2.7-3.9-4.1c-0.3-0.3-0.6-0.5-0.8-0.8C33.4,38.5,33.7,37.7,33.9,36.9z"/>
<path class="st10" d="M28.5,21.7l1.1,0.1c-0.2,2.2,0.4,4.4,0.6,6.6c-1.2-0.1-1.6-0.4-1.8-1.6s-0.8-2-1-3c-0.3-0.7,0-1.6,0.8-1.9
	C28.2,21.7,28.3,21.7,28.5,21.7z"/>
<path class="st13" d="M49.7,21.8l1.2-0.2c0.8,0.2,1.3,1.1,1.1,1.9c0,0.1-0.1,0.2-0.1,0.3c-0.3,1.2-0.8,2.3-1.1,3.5
	c-0.2,0.7-0.9,1.2-1.6,1c0,0,0,0,0,0c0.1-1.7,0.3-3.3,0.5-5C49.8,22.8,49.6,22.3,49.7,21.8z"/>
<path class="st10" d="M20.9,20.6c-0.1-1.6,0.5-3.1,0.3-4.7c0.4-0.2,0.8-0.2,1.2-0.1c0.5,0.5,0.6,1.2,0.3,1.8
	c-0.3,0.7-0.5,1.4-0.7,2.1C22,20.3,21.5,20.7,20.9,20.6C21,20.6,20.9,20.6,20.9,20.6z"/>
<path class="st10" d="M58.6,30c1.2-0.6,2.2-1.7,2.7-3c1.1,1.1,2.4,1.8,3.8,2.3c0.4,0.1,0.3,0.4,0.3,0.6c0.1,2.7-0.4,5.3-1.3,7.8
	c-1.3-0.1-2.6-0.3-3.8-0.8c-0.3-0.1-0.4-0.4-0.4-0.6C59.4,34.2,59,32.1,58.6,30z"/>
<path class="st8" d="M24.3,63.5c-0.7-0.9-1.1-1.9-1.3-3c-0.1-1.4,0.4-2.9,1.4-3.9c0.8-0.7,1.8-1.2,2.8-1.4c2.7-0.7,5.4,0.9,6.1,3.6
	c0.7,2.7-0.9,5.4-3.6,6.1C29.3,65,28.7,65,28.2,65c-1.2,0.1-2.4-0.3-3.3-1.2C24.7,63.7,24.6,63.5,24.3,63.5z M28.9,61
	c0.4,0,0.7,0,1.1-0.1c0.5-0.1,0.8-0.5,0.8-1c0-0.4-0.4-0.7-0.8-0.8c-0.4-0.1-0.7-0.1-1.1-0.1c0-0.3,0-0.5,0-0.8c0-0.6-0.3-1-0.9-1
	s-0.9,0.4-0.9,1c0,0.3,0,0.5,0,0.8c-0.3,0-0.7,0-1,0.1c-0.5,0-0.9,0.4-0.9,0.9c0,0,0,0.1,0,0.1c0,0.6,0.4,0.8,0.9,0.9
	c0.3,0,0.6,0,0.9,0c0,0.3,0,0.6,0,0.8c-0.1,0.5,0.3,0.9,0.7,1c0,0,0.1,0,0.1,0c0.6,0,0.9-0.4,1-1C28.9,61.6,28.9,61.3,28.9,61z"/>
<path class="st0" d="M35.2,48.1h0.1c0.5,1.1,1.1,2.1,1.8,3.1c0.9,1.3,1.6,2.6,2.3,4c-0.3,1.1-0.5,2.1-0.8,3.2
	c-0.8-0.8-1.7-1.5-2.6-2.2c-1.3-0.9-2.7-1.5-4.1-2c-0.9-0.3-1-0.6-0.8-1.5c0.1-0.4,0.2-0.7,0.3-1.1s0.2-1-0.4-1.2
	c-0.4-0.1-0.3-0.3-0.2-0.6c0.4-1.4,1.9-2.3,3.3-1.9c0,0,0,0,0,0l0.8,0.1l0,0L35.2,48.1z"/>
<path class="st13" d="M72.8,20.2c0.2-1.6,0.2-3.2,0-4.8c0.5-0.3,1.1-0.3,1.6,0c0.5,0.4,0.6,1,0.4,1.5c-0.2,0.8-0.5,1.6-0.8,2.4
	C73.8,19.9,73.3,20.2,72.8,20.2z"/>
<path class="st14" d="M20.3,13.7c-1-2.1-2.9-2.6-4.9-2.9c-0.5-0.1-1.1-0.2-1.6-0.1c-1.7,0-3.4,0.4-4.8,1.2c-0.6,0.5-1.1,1.1-1.5,1.8
	c0.1-1.5,1-2.9,2.3-3.6c1-0.6,2.1-0.9,3.2-1c0.2,0,0.5-0.1,0.7-0.1c1.7,0,3.4,0.5,4.8,1.4C19.6,11.2,20.2,12.4,20.3,13.7z"/>
<path class="st11" d="M14.2,28.8c-0.1,2.2-0.8,4.4-2,6.2c-0.1,0.1-0.2,0.3-0.4,0.3c-1.5-1.8-2.6-3.9-3.3-6.2
	c0.7-0.6,1.1-1.5,1.3-2.4C10.9,28.1,12.5,28.8,14.2,28.8z"/>
<path class="st10" d="M58.1,20.1c-0.6,0.1-1.2-0.3-1.3-1c-0.2-0.8-0.5-1.5-0.7-2.2c-0.2-0.6-0.1-1.3,0.4-1.7
	c0.5-0.3,1.1-0.3,1.5,0.1C57.9,17,57.9,18.6,58.1,20.1z"/>
<path class="st2" d="M39.5,55.3c-0.7-1.4-1.5-2.7-2.3-4l1-2.9c0.9-0.3,1.9-0.4,2.9-0.2c0.4,1,0.7,1.9,1,2.9
	C41.2,52.4,40.3,53.8,39.5,55.3z"/>
<path class="st4" d="M42,51.1c-0.3-1-0.6-2-1-2.9c0.5-0.4,0.7-1,1.2-1.4c0.7,0.2,1,0.9,1.5,1.2C43.2,49.1,42.7,50.1,42,51.1z"/>
<path class="st14" d="M42.3,46.8c-0.5,0.3-0.7,1-1.2,1.4c-1-0.2-2-0.2-2.9,0.2c-0.3-0.6-0.7-1.2-1.2-1.7c0.3-0.8,1-1.5,0.7-2.5h0.5
	h3.5c-0.1,0.6,0.1,1.3,0.4,1.8C42.3,46.1,42.3,46.5,42.3,46.8z"/>
<path class="st4" d="M36.9,46.6c0.5,0.5,0.9,1.1,1.2,1.7c-0.3,1-0.7,2-1,2.9c-0.7-1-1.3-2-1.8-3.1C35.9,47.7,36.5,47.2,36.9,46.6z"
	/>
<path class="st1" d="M35.2,48.1L35.1,48L35.2,48.1z"/>
<path class="st13" d="M28.9,59.1c0.4,0,0.7,0.1,1.1,0.1c0.5,0,0.9,0.4,0.9,0.9c0,0.5-0.4,0.9-0.9,0.9c-0.4,0.1-0.7,0.1-1.1,0.1
	c-0.6-0.2-1.3-0.2-1.9,0c-0.3,0-0.6,0-0.9,0c-0.5-0.1-0.9-0.3-0.9-0.9c-0.1-0.5,0.3-0.9,0.7-1c0,0,0.1,0,0.1,0c0.3,0,0.7-0.1,1-0.1
	C27.7,59.3,28.3,59.3,28.9,59.1z"/>
<path class="st11" d="M27.1,61c0.6-0.2,1.3-0.2,1.9,0c0,0.3,0,0.6,0,0.8c0,0.6-0.4,1-1,1c-0.5,0-0.9-0.4-0.9-0.9c0,0,0-0.1,0-0.1
	C27.1,61.6,27.1,61.3,27.1,61z"/>
<path class="st11" d="M28.9,59.1c-0.6,0.2-1.2,0.2-1.8,0c0-0.3,0-0.5,0-0.8c0-0.6,0.3-1,0.9-1s0.9,0.4,0.9,1
	C28.9,58.6,28.9,58.8,28.9,59.1z"/>
</svg>
