<?xml version="1.0" encoding="utf-8"?>
<!-- Generator: Adobe Illustrator 24.1.2, SVG Export Plug-In . SVG Version: 6.00 Build 0)  -->
<svg version="1.1" id="Layer_1" xmlns="http://www.w3.org/2000/svg" xmlns:xlink="http://www.w3.org/1999/xlink" x="0px" y="0px"
	 viewBox="0 0 80 80" style="enable-background:new 0 0 80 80;" xml:space="preserve">
<style type="text/css">
	.st0{fill:#F1D45B;}
	.st1{clip-path:url(#SVGID_2_);}
	.st2{fill:#E34F3D;}
	.st3{fill:#23AD5F;}
	.st4{fill:#E44E3D;}
	.st5{fill:#C03C2C;}
	.st6{fill:#95A5A4;}
	.st7{fill:#EBEFF0;}
	.st8{fill:#833238;}
	.st9{fill:#7F8B8C;}
	.st10{fill:#BDC3C7;}
	.st11{fill:#F1D55B;}
	.st12{fill:#3E96D2;}
	.st13{fill:#435E6C;}
	.st14{fill:#FFFFFF;}
	.st15{fill:#2A5780;}
	.st16{fill:#2B5981;}
</style>
<circle class="st0" cx="40" cy="40.4" r="39"/>
<g>
	<defs>
		<circle id="SVGID_1_" cx="40" cy="40.4" r="39"/>
	</defs>
	<clipPath id="SVGID_2_">
		<use xlink:href="#SVGID_1_"  style="overflow:visible;"/>
	</clipPath>
	<g class="st1">
		<path class="st2" d="M59.9,80.1c-0.5-0.2-1-0.4-1.6-0.4c-1.5-0.3-2.9-0.7-4.4-1.2c0,0-0.1-0.1-0.1-0.1c-8.3-3.7-13.2-10-14.2-19
			c-0.8-6.5,1.4-13,6-17.8c2.1-2.3,4.7-4.1,7.5-5.4c3.1-1.3,6.5-2,9.9-1.9c12.6,0.4,22.6,10.9,22.2,23.5c-0.3,9-5.8,17-14.1,20.5
			c-1.9,0.8-3.9,1.3-6,1.6c-0.2,0-0.4-0.1-0.5,0.2L59.9,80.1z M68.7,52.7c-0.1,0.1-0.2,0.1-0.3,0.2L56.1,65.3
			c-0.2,0.1-0.3,0.3-0.4,0.5c-0.1,0.1-0.2,0.1-0.3,0.2c-2,2-4,4.1-6.1,6.1c-0.4,0.4-0.1,0.6,0.2,0.8c4.3,3.5,9.9,5.1,15.5,4.3
			c11-1.5,18.7-11.6,17.2-22.6c-0.5-3.7-2-7.2-4.4-10.1c-0.3-0.4-0.5-0.5-0.8-0.1c-1.4,1.4-2.8,2.8-4.1,4.2S70.1,51.3,68.7,52.7z
			 M66.7,50.7c1.5-1.3,2.9-2.8,4.2-4.2c1.5-1.2,2.7-2.7,4.1-4c0.4-0.4,0.4-0.6,0-1c-3.9-3.2-8.9-4.8-14-4.5
			c-4.7,0.2-9.2,2.2-12.6,5.5c-4.5,4.2-6.8,10.2-6.1,16.3c0.3,4,1.9,7.9,4.4,11c0.3,0.4,0.5,0.5,0.9,0.1c1.4-1.4,2.8-2.8,4.2-4.2
			c0.7-0.6,1.4-1.4,2-2.1c0.3-0.1,0.5-0.3,0.7-0.5c2.4-2.4,4.9-4.8,7.3-7.3C63.4,54.2,65,52.5,66.7,50.7L66.7,50.7z"/>
		<path class="st3" d="M53.1,36.2c-2.8,1.3-5.4,3.1-7.5,5.4c-4.5,4.7-6.7,11.3-6,17.8c1,9.1,5.9,15.4,14.2,19c0,0,0.1,0.1,0.1,0.1
			c-0.4,0.2-0.9,0.2-1.4,0.2H22.2C20,78.9,18,77.2,17.8,75c0-0.2,0-0.5,0-0.7c0-6.5,0-13,0-19.5c0-6.5,1.4-13,4-19
			c1.2-2.7,2.4-5.4,3.5-8.2c0.4-0.9,0.9-1.5,2-1.4c3.8,0,7.7,0,11.5,0c2.9,0,5.8,0,8.7,0c0.9-0.1,1.7,0.5,1.9,1.3
			C50.5,30.4,51.8,33.3,53.1,36.2z M25.9,74.7h2.4c0,0,0.1,0,0.1,0c1,0,1.6-0.6,1.5-1.3c0-0.8-0.7-1.4-1.5-1.3c0,0-0.1,0-0.1,0
			c-1.1,0-2.2,0-3.3,0c-0.5,0-0.6-0.1-0.6-0.6c0-1.1,0-2.3,0-3.4c0.1-0.7-0.5-1.4-1.2-1.4c-0.7-0.1-1.4,0.5-1.4,1.2
			c0,0.1,0,0.2,0,0.2c0,1.8,0,3.5,0,5.3c-0.1,0.7,0.5,1.3,1.2,1.4c0.1,0,0.2,0,0.2,0C24.2,74.7,25,74.7,25.9,74.7z"/>
		<path class="st4" d="M47.5,26.2c-2.9,0-5.8,0-8.7,0c-3.8,0-7.7,0-11.5,0c-0.1-1.8,0.1-3.6-0.1-5.4c0.3-0.3,0.2-0.6,0.2-0.9
			c0-2.9,0-5.7,0-8.6h1.9c1.6,0,3.2,0.1,4.8,0h5.4h8c0,0.3,0.1,0.6,0.1,0.9c0,2.4,0,4.7,0,7.1C47.4,21.7,47.5,23.9,47.5,26.2z"/>
		<path class="st5" d="M27.3,11.4c0,2.8,0,5.7,0,8.6c0,0.3,0.1,0.6-0.2,0.9h-7.6c-1.3,0-1.7,0.4-1.7,1.6c-0.1,2.7-0.9,5.3-2.2,7.7
			c-1.4,2.4-2.6,4.8-3.7,7.4c-0.4,1.2-1.8,1.8-3,1.4c-1-0.4-1.7-1.4-1.5-2.5c1.2-6.5,2.3-13,3.5-19.5c0.6-3.3,3.6-5.6,6.9-5.5
			c2.4,0,4.8,0,7.2,0L27.3,11.4z"/>
		<path class="st6" d="M34,6.1c-0.8,0-1.7,0-2.6,0c-1.5,0.1-2.8-1.1-2.8-2.6c0,0,0-0.1,0-0.1c0-1.5,1.3-2.7,2.8-2.7c0,0,0.1,0,0.1,0
			c3.5,0,6.9,0,10.4,0c1.4-0.1,2.7,1,2.8,2.4c0,0.1,0,0.2,0,0.3c0,1.5-1.2,2.7-2.7,2.7c-0.1,0-0.1,0-0.2,0L34,6.1L34,6.1z"/>
		<path class="st7" d="M47.5,19.4c0-2.4,0-4.7,0-7.1c0-0.3,0-0.6-0.1-0.9c2.1,0,4.2-0.1,6.3,0c1.3,0,1.8,0.6,1.8,1.9v3.5
			c0,0.5,0,1,0,1.5c-0.1,0.7-0.7,1.2-1.4,1.2L47.5,19.4z"/>
		<path class="st8" d="M27.3,11.4H25l-6-5.1c-0.2-0.1-0.3-0.3-0.5-0.4c-0.8-0.7-0.9-1.4-0.4-2.1c0.5-0.6,1.3-0.6,1.9-0.2
			c0.1,0,0.1,0.1,0.2,0.2l4.1,3.4c1.6,1.4,3.3,2.8,4.9,4.1L27.3,11.4z"/>
		<path class="st9" d="M34,6.1h5.4c0,1.8,0,3.5,0,5.3H34V6.1z"/>
		<path class="st10" d="M55.5,16.8v-2.7c0.8,0,1.7,0,2.5,0c0.8,0,1.4,0.5,1.5,1.3c0,0.8-0.7,1.4-1.4,1.4c0,0,0,0,0,0L55.5,16.8z"/>
		<path class="st0" d="M53.7,63.7c-0.6,0.8-1.3,1.5-2,2.1c-1.4,1.4-2.8,2.8-4.2,4.2c-0.4,0.4-0.6,0.3-0.9-0.1c-2.5-3.1-4.1-7-4.4-11
			c-0.6-6.1,1.7-12.1,6.1-16.3c3.4-3.4,7.9-5.3,12.7-5.6c5.1-0.4,10.1,1.2,14,4.5c0.5,0.4,0.5,0.6,0,1c-1.4,1.3-2.6,2.8-4.1,4
			c-2.6-1.4-5.4-0.7-6.8,1.5c-0.7-0.7-1.7-1-2.6-0.7c0-0.5,0-1.1,0-1.6c-0.1-0.7,0.2-1.3,0.7-1.7c0.7-0.6,1.4-1.3,2-2
			c0.6-0.5,0.7-1.3,0.2-1.9c0,0-0.1-0.1-0.1-0.1c-0.6-0.5-1.4-0.5-1.9,0.1c0,0,0,0-0.1,0.1c-1,1-2,2-3,3c-0.3,0.3-0.5,0.7-0.5,1.1
			v5.6c-0.3,0.4-0.7,0.8-1.1,1.1c-1-1.1-2.1-2.1-3.2-3.2c-0.5-0.5-1.4-0.6-1.9,0c0,0,0,0,0,0c-0.5,0.5-0.5,1.4,0,1.9c0,0,0,0,0,0
			c1,1.1,2.1,2.1,3.2,3.2c-0.3,0.4-0.7,0.8-1.1,1.1h-5.6c-0.3,0-0.6,0.1-0.8,0.3c-1.2,1.1-2.3,2.3-3.5,3.5c-0.3,0.5-0.2,1.2,0.2,1.6
			c0.5,0.5,1.2,0.5,1.8,0.1c0.3-0.2,0.6-0.5,0.8-0.8c1.1-1.8,3.3-2.7,5.4-2.2C52,58.8,52.3,61.5,53.7,63.7z"/>
		<path class="st11" d="M72.9,48.5c1.4-1.4,2.8-2.8,4.1-4.2c0.4-0.4,0.6-0.3,0.8,0.1c5.7,7,6.1,16.9,1,24.3
			c-3.2,4.7-8.2,7.8-13.9,8.4c-5.5,0.8-11.2-0.7-15.5-4.3c-0.3-0.2-0.6-0.4-0.2-0.8c2-2,4.1-4,6.1-6.1c0.1-0.1,0.2-0.2,0.3-0.2
			c1.5,0.9,3.2,1.4,4.9,1.3c0.9-0.1,1.7-0.4,2.5-0.5c0,0.8,0,1.6,0,2.4c0,0.5-0.1,0.9-0.5,1.2c-0.8,0.7-1.5,1.5-2.3,2.2
			c-0.6,0.4-0.7,1.3-0.3,1.9c0.4,0.6,1.3,0.7,1.9,0.3c0.1-0.1,0.2-0.2,0.3-0.3c1-1,2-2,3-3c0.3-0.3,0.5-0.8,0.5-1.2
			c0-1.8,0-3.7,0-5.5c0.3-0.4,0.7-0.7,1.1-1c1,1,2,2.1,3.1,3.1c0.5,0.6,1.3,0.7,1.9,0.2c0.6-0.5,0.7-1.3,0.2-1.9
			c-0.1-0.1-0.1-0.1-0.2-0.2c-1-1-2.1-2.1-3.1-3.1c0.3-0.4,0.6-0.8,1.1-1.1h5.5c0.4,0,0.7-0.1,1-0.4c1.1-1.1,2.2-2.2,3.3-3.3
			c0.5-0.5,0.5-1.3,0-1.9c0,0,0,0,0,0c-0.5-0.5-1.4-0.5-1.9,0c-0.4,0.3-0.8,0.7-1.1,1.1c-0.9,1.5-2.7,2.2-4.4,1.8
			c0.2-0.6,0.1-1.3-0.1-1.9c-0.2-0.3-0.5-0.5-0.5-0.8c0.3-0.1,0.6-0.3,0.8-0.5C73.8,53,74.1,50.5,72.9,48.5z"/>
		<path class="st12" d="M57.7,50.8c0.4-0.3,0.8-0.7,1.1-1.1c0.8-0.8,1.7-1.6,2.7-2.4c0.9-0.3,1.9,0,2.6,0.7l2.7,2.8
			c-1.7,1.7-3.4,3.4-5.1,5.1c-2.4,2.4-4.9,4.9-7.3,7.3c-0.2,0.2-0.4,0.4-0.7,0.5c-1.4-2.2-1.7-4.9-0.8-7.4c0.5-1,1.1-1.8,1.9-2.7
			c0.4-0.3,0.8-0.7,1.1-1.1C56.5,52.1,57.2,51.4,57.7,50.8z"/>
		<path class="st12" d="M71.5,55.3c0,0.4,0.3,0.5,0.5,0.8c0.3,0.6,0.3,1.2,0.2,1.9l-1,1.1c-0.5,0.5-1,1-1.4,1.6
			c-0.4,0.3-0.8,0.6-1.1,1.1c-0.7,0.5-1.4,1.1-1.9,1.9c-0.4,0.3-0.8,0.6-1.1,1c-0.8,0.7-1.7,1.4-2.6,1.9c-0.8,0.1-1.6,0.5-2.5,0.5
			c-1.7,0.1-3.4-0.4-4.9-1.3c0.1-0.2,0.2-0.4,0.4-0.5l12.4-12.3c0.1-0.1,0.2-0.1,0.3-0.2c0.2,0.2,0.4,0.4,0.6,0.6
			C70,54,70.7,54.7,71.5,55.3z"/>
		<path class="st13" d="M66.7,50.8L64.1,48c1.4-2.2,4.2-2.8,6.8-1.5C69.6,48,68.2,49.4,66.7,50.8z"/>
		<path class="st13" d="M71.5,55.3c-0.8-0.6-1.5-1.3-2.2-2c-0.2-0.2-0.4-0.4-0.6-0.6c1.4-1.4,2.8-2.9,4.2-4.2c1.2,2,0.9,4.5-0.6,6.2
			C72.1,55,71.8,55.2,71.5,55.3z"/>
		<path class="st14" d="M25.9,74.7c-0.9,0-1.8,0-2.6,0c-0.7,0.1-1.3-0.4-1.4-1.1c0-0.1,0-0.2,0-0.2c0-1.8,0-3.5,0-5.3
			c-0.1-0.7,0.5-1.4,1.2-1.4c0.7-0.1,1.4,0.5,1.4,1.2c0,0.1,0,0.2,0,0.2c0,1.1,0,2.3,0,3.4c0,0.4,0.1,0.6,0.6,0.6c1.1,0,2.2,0,3.3,0
			c0.8-0.1,1.5,0.4,1.6,1.2c0,0,0,0.1,0,0.1c0,0.8-0.6,1.3-1.5,1.3c0,0-0.1,0-0.1,0L25.9,74.7z"/>
		<path class="st15" d="M54.8,53.7c-0.7,0.8-1.3,1.7-1.9,2.7c-2.1-0.5-4.2,0.4-5.4,2.2c-0.2,0.3-0.5,0.5-0.8,0.8
			c-0.5,0.4-1.3,0.4-1.8-0.1c-0.5-0.5-0.5-1.2-0.1-1.8c1.1-1.2,2.3-2.3,3.4-3.4c0.2-0.2,0.5-0.3,0.8-0.3L54.8,53.7z"/>
		<path class="st15" d="M61.5,47.3c-0.9,0.7-1.8,1.5-2.7,2.4v-5.6c0-0.4,0.2-0.8,0.5-1.1c1-1,2-2,3-3c0.5-0.6,1.3-0.7,1.9-0.2
			c0,0,0,0,0.1,0.1c0.5,0.5,0.5,1.4,0,1.9c0,0-0.1,0.1-0.1,0.1c-0.7,0.7-1.3,1.4-2,2c-0.5,0.4-0.8,1.1-0.7,1.8
			C61.5,46.2,61.5,46.8,61.5,47.3z"/>
		<path class="st16" d="M57.7,50.8c-0.6,0.7-1.2,1.3-1.9,1.9c-1.1-1-2.1-2.1-3.2-3.1c-0.5-0.5-0.5-1.4,0-1.9c0,0,0,0,0,0
			c0.5-0.5,1.4-0.6,1.9,0c0,0,0,0,0,0C55.7,48.6,56.7,49.7,57.7,50.8z"/>
		<path class="st16" d="M63.1,66.5c0.9-0.5,1.8-1.2,2.6-1.9c0,1.8,0,3.7,0,5.5c0,0.5-0.2,0.9-0.5,1.2c-1,1-2,2-3,3
			c-0.5,0.6-1.3,0.7-1.9,0.2s-0.7-1.3-0.2-1.9c0.1-0.1,0.2-0.2,0.3-0.3c0.7-0.8,1.5-1.5,2.3-2.2c0.4-0.3,0.5-0.8,0.5-1.2
			C63.1,68.1,63.1,67.3,63.1,66.5z"/>
		<path class="st16" d="M69.8,60.7c0.4-0.6,0.9-1.1,1.4-1.6l1-1.1c1.7,0.4,3.5-0.3,4.4-1.8c0.3-0.4,0.7-0.8,1.1-1.1
			c0.5-0.5,1.4-0.5,1.9,0c0.5,0.5,0.5,1.3,0,1.9c0,0,0,0,0,0c-1.1,1.1-2.2,2.2-3.3,3.3c-0.3,0.3-0.6,0.4-1,0.4L69.8,60.7z"/>
		<path class="st16" d="M66.8,63.6c0.5-0.7,1.1-1.4,1.9-1.9c1,1,2.1,2,3.1,3.1c0.6,0.5,0.7,1.3,0.2,1.9c-0.5,0.6-1.3,0.7-1.9,0.2
			c-0.1-0.1-0.1-0.1-0.2-0.2C68.9,65.7,67.9,64.7,66.8,63.6z"/>
	</g>
</g>
<path class="st2" d="M51,40.4c2.9-2,6.3-3.1,9.9-3.3c4.4-0.3,8.8,0.8,12.4,3.3h4.5c-4-3.8-9.3-5.9-14.9-6.1c-3.4,0-6.8,0.6-9.9,1.9
	c-2.3,1.1-4.4,2.5-6.3,4.2H51z"/>
<path class="st3" d="M53,36.2c-1.2-2.9-2.5-5.8-3.7-8.7c-0.2-0.8-1-1.4-1.9-1.3c-2.9,0-5.8,0-8.7,0H27.2c-1-0.1-1.6,0.5-2,1.4
	c-1.1,2.7-2.3,5.5-3.5,8.2c-0.6,1.5-1.2,3-1.7,4.6h26.7C48.6,38.7,50.7,37.3,53,36.2z"/>
<path class="st4" d="M47.4,26.2c0-2.3,0-4.5,0-6.8c0-2.4,0-4.7,0-7.1c0-0.3,0-0.6-0.1-0.9h-8h-5.4c-1.6,0.1-3.2,0-4.8,0h-1.9
	c0,2.9,0,5.7,0,8.6c0,0.3,0.1,0.6-0.2,0.9c0.2,1.8,0,3.6,0.1,5.4h11.5C41.6,26.2,44.5,26.2,47.4,26.2z"/>
<path class="st5" d="M27.3,19.9c0-2.9,0-5.7,0-8.6H25c-2.4,0-4.8,0-7.2,0c-3.3-0.1-6.3,2.2-6.9,5.5c-1.2,6.5-2.4,13-3.5,19.5
	c-0.2,1.3,0.7,2.4,2,2.6c1.1,0.2,2.1-0.5,2.5-1.5c1.1-2.5,2.3-5,3.7-7.4c1.4-2.3,2.1-5,2.2-7.7c0.1-1.2,0.5-1.6,1.7-1.6h7.6
	C27.4,20.6,27.3,20.2,27.3,19.9z"/>
<path class="st6" d="M41.8,6.1c1.5,0.1,2.8-1.1,2.8-2.6c0-0.1,0-0.1,0-0.2c0-1.5-1.1-2.7-2.6-2.7c-0.1,0-0.2,0-0.3,0
	c-3.5,0-6.9,0-10.4,0c-1.5-0.1-2.8,1.1-2.9,2.6c0,0,0,0.1,0,0.1c0,1.5,1.2,2.7,2.8,2.7c0,0,0.1,0,0.1,0c0.8,0,1.7,0,2.6,0L41.8,6.1
	L41.8,6.1z"/>
<path class="st7" d="M47.4,19.4h6.6c0.7,0,1.3-0.5,1.4-1.2c0-0.5,0-1,0-1.5v-3.5c0-1.3-0.5-1.9-1.8-1.9c-2.1,0-4.2,0-6.3,0
	c0,0.3,0.1,0.6,0.1,0.9C47.4,14.7,47.4,17,47.4,19.4z"/>
<path class="st8" d="M29.2,11.3l-4.9-4.1l-4.1-3.4c-0.5-0.6-1.3-0.6-1.9-0.2c-0.1,0-0.1,0.1-0.2,0.2c-0.5,0.6-0.4,1.4,0.4,2.1
	l0.5,0.4l6,5.1h2.3H29.2z"/>
<path class="st9" d="M39.3,6.1h-5.4v5.3h5.4C39.3,9.6,39.3,7.8,39.3,6.1z"/>
<path class="st10" d="M58,16.8c0.8,0,1.4-0.6,1.5-1.3c0,0,0,0,0,0c-0.1-0.8-0.7-1.3-1.5-1.3c-0.8,0-1.7,0-2.5,0v2.7L58,16.8z"/>
<path class="st0" d="M60.9,37.1c-3.5,0.2-7,1.3-9.9,3.3h10.9l0.3-0.3c0.5-0.6,1.3-0.7,1.9-0.2c0,0,0,0,0.1,0.1
	c0.1,0.1,0.3,0.3,0.3,0.5h8.8C69.7,37.9,65.3,36.7,60.9,37.1z"/>
<path class="st15" d="M62.2,40l-0.3,0.3h2.6c-0.1-0.2-0.2-0.3-0.3-0.5C63.7,39.3,62.8,39.4,62.2,40C62.3,40,62.3,40,62.2,40z"/>
</svg>
