<svg width="14" height="14" viewBox="0 0 14 14" fill="none" xmlns="http://www.w3.org/2000/svg">
<path d="M5.24935 1.1665C3.72102 1.1665 2.47852 2.409 2.47852 3.93734C2.47852 5.4365 3.65102 6.64984 5.17935 6.70234C5.22602 6.6965 5.27268 6.6965 5.30768 6.70234C5.31935 6.70234 5.32518 6.70234 5.33685 6.70234C5.34268 6.70234 5.34268 6.70234 5.34852 6.70234C6.84185 6.64984 8.01435 5.4365 8.02018 3.93734C8.02018 2.409 6.77768 1.1665 5.24935 1.1665Z" fill="#90A3BF"/>
<path d="M8.21258 8.25418C6.58508 7.16918 3.93091 7.16918 2.29174 8.25418C1.55091 8.75001 1.14258 9.42085 1.14258 10.1383C1.14258 10.8558 1.55091 11.5208 2.28591 12.0108C3.10258 12.5592 4.17591 12.8333 5.24925 12.8333C6.32258 12.8333 7.39591 12.5592 8.21258 12.0108C8.94758 11.515 9.35591 10.85 9.35591 10.1267C9.35008 9.40918 8.94758 8.74418 8.21258 8.25418Z" fill="#90A3BF"/>
<path d="M11.6605 4.28156C11.7538 5.41323 10.9488 6.4049 9.83464 6.53906C9.8288 6.53906 9.8288 6.53906 9.82297 6.53906H9.80547C9.77047 6.53906 9.73547 6.53906 9.7063 6.55073C9.14047 6.5799 8.6213 6.39906 8.23047 6.06656C8.8313 5.5299 9.17547 4.7249 9.10547 3.8499C9.06464 3.3774 8.9013 2.94573 8.6563 2.57823C8.87797 2.4674 9.13464 2.3974 9.39714 2.37406C10.5405 2.2749 11.5613 3.12656 11.6605 4.28156Z" fill="#90A3BF"/>
<path d="M12.8268 9.67757C12.7802 10.2434 12.4185 10.7334 11.8118 11.0659C11.2285 11.3867 10.4935 11.5384 9.76432 11.5209C10.1843 11.1417 10.4293 10.6692 10.476 10.1676C10.5343 9.44424 10.1902 8.75007 9.50182 8.1959C9.11099 7.88674 8.65599 7.64173 8.16016 7.4609C9.44932 7.08757 11.071 7.3384 12.0685 8.1434C12.6052 8.57507 12.8793 9.11757 12.8268 9.67757Z" fill="#90A3BF"/>
</svg>
