<svg id="Layer_1" data-name="Layer 1" xmlns="http://www.w3.org/2000/svg" xmlns:xlink="http://www.w3.org/1999/xlink" viewBox="0 0 80 80"><defs><style>.cls-1,.cls-17{fill:none;}.cls-2{fill:#df8ba4;}.cls-3{clip-path:url(#clip-path);}.cls-4{fill:#c08d63;}.cls-5{fill:#996238;}.cls-6{fill:#d7e3ee;}.cls-7{fill:#9ecf79;}.cls-8{fill:#71adbf;}.cls-9{fill:#90c3d7;}.cls-10{fill:#92b8d7;}.cls-11{fill:#57b676;}.cls-12{fill:#f6e47f;}.cls-13{fill:#57b674;}.cls-14{fill:#eca632;}.cls-15{fill:#c8528c;}.cls-16{fill:#93b8d8;}.cls-17{stroke:#57b674;stroke-linecap:round;stroke-linejoin:round;stroke-width:0;}.cls-18{clip-path:url(#clip-path-2);}.cls-19{fill:#e34f3d;}</style><clipPath id="clip-path"><circle class="cls-1" cx="40" cy="40" r="39"/></clipPath><clipPath id="clip-path-2"><circle class="cls-1" cx="-43.81" cy="40.36" r="39"/></clipPath></defs><circle class="cls-2" cx="40" cy="40" r="39"/><g class="cls-3"><path class="cls-4" d="M83.87,70.75a16.88,16.88,0,0,1-2.38,4.08A11.34,11.34,0,0,1,72.73,79c-15,0-30,0-45.06,0l-1.52,0c-.38-.28-.82-.09-1.23-.18a11.76,11.76,0,0,1-9.11-8.32l5.75,0H70.84l.5,0,12.53,0Z"/><path class="cls-5" d="M15.81,70.44a11.76,11.76,0,0,0,9.11,8.32c.41.09.85-.1,1.23.18-6,0-12,.14-18,0C3,78.78-.72,76.13-2.72,71.22c-.07-.17-.06-.41-.3-.47V70.4H10.89Z"/><path class="cls-6" d="M58.58,32.76c.27.24.6.13.9.14H70.07A10.56,10.56,0,0,1,80.33,42a15.86,15.86,0,0,1,.14,2.28q0,6.59,0,13.17a2.28,2.28,0,0,0-.32.95,10.17,10.17,0,0,1-9.49,8.22c-10.9.15-21.8,0-32.71.07-.63,0-.74-.26-.73-.81,0-1.28,0-2.57,0-3.85l.67-1.53c.23.24.53.17.8.17q12.56,0,25.11,0a7,7,0,0,0,3.91-1.2c2.57-1.72,3.74-5.55,2.82-8.87a7,7,0,0,0-7.08-5.32q-10.86,0-21.71,0a3.46,3.46,0,0,0-1,.09,1.27,1.27,0,0,0-1,1.36A1.36,1.36,0,0,0,40.87,48a4.76,4.76,0,0,0,.76,0H63.85a4.21,4.21,0,0,1,2.24.65c1.83,1.14,2,3,2,4.86a4.3,4.3,0,0,1-4.6,4.46c-6.56-.07-13.12-.12-19.68,0a5.25,5.25,0,0,1-4.55-2.21c-.16-.19-.31-.39-.47-.59a16.26,16.26,0,0,0-1.57-7c.08-1.87-.06-3.75.14-5.62a10.57,10.57,0,0,1,4.31-7.58,13.08,13.08,0,0,1,4.86-2H50c.27,0,.57.08.81-.13a17.24,17.24,0,0,0,3.37.08A27.44,27.44,0,0,0,58.58,32.76Z"/><path class="cls-2" d="M37.2,48.13a16.26,16.26,0,0,1,1.57,7,18.78,18.78,0,0,1-.91,5.31c-.22.51-.44,1-.67,1.53-.09.14-.2.27-.28.42A15.54,15.54,0,0,1,30,69a19.58,19.58,0,0,1-4.66,1.41H22.6A8.4,8.4,0,0,1,18,65.67a26.89,26.89,0,0,1-2.15-10.43,26.28,26.28,0,0,1,.32-4.15c.36-3.12,1-6.22,3.07-8.62a6.13,6.13,0,0,0,1.35-4.74c0-.46,0-.91,0-1.37h8.82c0,1.28,0,2.55,0,3.83,0,.33-.09.73.43.76a2.42,2.42,0,0,0,.92.59,15.28,15.28,0,0,1,4.74,4C36.14,46.34,36.6,47.28,37.2,48.13Z"/><path class="cls-7" d="M58.58,32.76a27.44,27.44,0,0,1-4.44.09c-.48-.35-1.08-.27-1.62-.42A17.92,17.92,0,0,1,43.64,27a18.14,18.14,0,0,1-3.39-5.55,19.87,19.87,0,0,1-1.19-8,17,17,0,0,1,8.66,3.47c.2.15.35.39.64.38-.81,7,3.21,13.28,5.74,14.8,0-.25-.15-.42-.25-.61A23.31,23.31,0,0,1,52.3,27.8a30.52,30.52,0,0,1-1.21-10.24,28,28,0,0,1,1.75-8.72c.38-1,1-1.94,1.32-3h0l.18-.2c.3-.39.54-.11.77.09a18,18,0,0,1,5.67,10.34,2.84,2.84,0,0,0,.34,1.28A1.79,1.79,0,0,0,61,18.51a17.71,17.71,0,0,1-3.73,11.65c-.49.66-1.26,1.06-1.55,1.88l-.07.08.08-.07c.59-.07.9-.55,1.31-.88A17.74,17.74,0,0,0,63.65,18a3.78,3.78,0,0,0-.18-2.25,17.15,17.15,0,0,1,9.81-2.38c.56,0,.7.25.72.77A18,18,0,0,1,63.68,31.26,18.14,18.14,0,0,1,58.58,32.76Z"/><path class="cls-8" d="M10.89,70.39H3.1a3.09,3.09,0,0,1-1.88-3.2q0-22,0-44.07c0-2.26,1-3.21,3.21-3.22l2.88,0,.18.06c.94.27,1.93,0,3.07.19A2.56,2.56,0,0,0,9,22.84C9,31.91,9,41,9,50a17,17,0,0,0-.71,6.39A34.31,34.31,0,0,0,9,60.09c0,2.42.05,4.84,0,7.26A2.81,2.81,0,0,0,10.89,70.39Z"/><path class="cls-9" d="M9,50C9,41,9,31.91,9,22.84a2.56,2.56,0,0,1,1.56-2.71c-1.14-.2-2.13.08-3.07-.19l3.42-.06h6.64l3.38,0a2.62,2.62,0,0,1,2.68,2.68c0,2.47,0,4.94,0,7.42h-3c-.74,0-1.47,0-2.21,0s-.9.14-.87.85c.05,1.57,0,3.14,0,4.71,0,.27-.1.58.18.79,0,1.2-.07,2.39,0,3.58a1.18,1.18,0,0,1-.8,1.3,14.63,14.63,0,0,0-5.25,4.19A20.74,20.74,0,0,0,9,50Z"/><path class="cls-10" d="M25.34,70.39A19.58,19.58,0,0,0,30,69a15.54,15.54,0,0,0,6.91-6.56c.08-.15.19-.28.28-.42,0,1.28,0,2.57,0,3.85,0,.55.1.81.73.81,10.91,0,21.81.08,32.71-.07a10.17,10.17,0,0,0,9.49-8.22,2.28,2.28,0,0,1,.32-.95c0,2.42,0,4.84-1.13,7.06a10.3,10.3,0,0,1-7.76,5.78.68.68,0,0,0-.22.12l-.5,0H25.34Z"/><path class="cls-10" d="M37.2,48.13c-.6-.85-1.06-1.79-1.71-2.61a15.28,15.28,0,0,0-4.74-4,2.42,2.42,0,0,1-.92-.59,10.48,10.48,0,0,1,8.41-7.87,78.66,78.66,0,0,1,8.27-.16,13.08,13.08,0,0,0-4.86,2,10.57,10.57,0,0,0-4.31,7.58C37.14,44.38,37.28,46.26,37.2,48.13Z"/><path class="cls-11" d="M39.06,13.44a19.87,19.87,0,0,0,1.19,8A18.14,18.14,0,0,0,43.64,27a17.92,17.92,0,0,0,8.88,5.42c.54.15,1.14.07,1.62.42a17.24,17.24,0,0,1-3.37-.08,17.57,17.57,0,0,1-13.45-9.51,17.64,17.64,0,0,1-2-9.31c0-.44.16-.58.59-.59A27.2,27.2,0,0,1,39.06,13.44Z"/><path class="cls-12" d="M17.56,19.87H10.92c0-2.25,0-4.5,0-6.75a3.4,3.4,0,0,1,1.85-3.51c.79,0,1.58,0,2.36,0A2.39,2.39,0,0,1,17.52,12C17.55,14.65,17.55,17.26,17.56,19.87Z"/><path class="cls-6" d="M20.58,30h3c1.66,0,3.32,0,5,0,.55,0,.82.1.81.74-.05,1.88,0,3.75,0,5.63H20.56v0Z"/><path class="cls-13" d="M54.16,5.83c-.28,1.07-.94,2-1.32,3a28,28,0,0,0-1.75,8.72A30.52,30.52,0,0,0,52.3,27.8a23.31,23.31,0,0,0,1.55,3.68c.1.19.27.36.25.61-2.53-1.52-6.55-7.85-5.74-14.8A17.17,17.17,0,0,1,54.16,5.83Z"/><path class="cls-14" d="M12.75,9.62a3.4,3.4,0,0,0-1.85,3.51c0,2.25,0,4.5,0,6.75l-3.42.06-.18-.06c0-2.48,0-4.95,0-7.43A2.54,2.54,0,0,1,10.13,9.6Z"/><path class="cls-13" d="M63.47,15.73A3.78,3.78,0,0,1,63.65,18,17.74,17.74,0,0,1,57,31.17c-.41.33-.72.81-1.31.88h0c.29-.82,1.06-1.22,1.55-1.88A17.71,17.71,0,0,0,61,18.51a1.79,1.79,0,0,1,.15-1.16A12.28,12.28,0,0,1,63.47,15.73Z"/><path class="cls-13" d="M54.34,5.64l-.18.2Z"/><path class="cls-15" d="M9,50a20.74,20.74,0,0,1,2.6-4.64,14.63,14.63,0,0,1,5.25-4.19,1.18,1.18,0,0,0,.8-1.3c-.05-1.19,0-2.38,0-3.58h2.86v0c0,.46,0,.91,0,1.37a6.13,6.13,0,0,1-1.35,4.74c-2,2.4-2.71,5.5-3.07,8.62a26.28,26.28,0,0,0-.32,4.15A26.89,26.89,0,0,0,18,65.67a8.4,8.4,0,0,0,4.62,4.72h-1a1.77,1.77,0,0,0-.38-.15,15.06,15.06,0,0,1-8.79-4.68A18.24,18.24,0,0,1,9,60.09a34.31,34.31,0,0,1-.72-3.66A17,17,0,0,1,9,50Z"/><path class="cls-9" d="M9,60.09a18.24,18.24,0,0,0,3.35,5.47,15.06,15.06,0,0,0,8.79,4.68,1.77,1.77,0,0,1,.38.15l-5.75,0-4.92,0a2.81,2.81,0,0,1-1.89-3C9.09,64.93,9,62.51,9,60.09Z"/><path class="cls-16" d="M37.86,60.47a18.78,18.78,0,0,0,.91-5.31c.16.2.31.4.47.59A5.25,5.25,0,0,0,43.79,58c6.56-.15,13.12-.1,19.68,0a4.3,4.3,0,0,0,4.6-4.46c.06-1.9-.15-3.72-2-4.86A4.21,4.21,0,0,0,63.85,48H41.63a4.76,4.76,0,0,1-.76,0,1.36,1.36,0,0,1-1.21-1.26,1.27,1.27,0,0,1,1-1.36,3.46,3.46,0,0,1,1-.09q10.84,0,21.71,0a7,7,0,0,1,7.08,5.32c.92,3.32-.25,7.15-2.82,8.87a7,7,0,0,1-3.91,1.2q-12.56,0-25.11,0C38.39,60.64,38.09,60.71,37.86,60.47Z"/><path class="cls-13" d="M55.7,32.05l-.08.07.07-.08Z"/><path class="cls-10" d="M20.56,36.33H17.7c-.28-.21-.18-.52-.18-.79,0-1.57,0-3.14,0-4.71,0-.71.23-.9.87-.85s1.47,0,2.21,0C20.57,32.1,20.57,34.21,20.56,36.33Z"/></g><path class="cls-1" d="M8.88,20a5,5,0,0,1-1.46-.12l-.18-.06.18.06A5,5,0,0,0,8.88,20Z"/><path class="cls-1" d="M20.48,36.29c0-2.11,0-4.22,0-6.33h0C20.49,32.07,20.49,34.18,20.48,36.29Z"/><path class="cls-6" d="M41.57,34.89A11.63,11.63,0,0,0,38.73,38H78.85A10.47,10.47,0,0,0,70,32.86c-3.53,0-7.06,0-10.59,0-.3,0-.63.1-.9-.13-.74.07-1.48.12-2.22.13s-1.48,0-2.22,0a11.93,11.93,0,0,1-1.69,0l-1.68-.12c-.25.2-.54.12-.81.12-1.15,0-2.3,0-3.45,0-.64.17-1.28.34-1.91.54-.42.14-.83.29-1.23.46A8.33,8.33,0,0,0,41.57,34.89Z"/><path class="cls-2" d="M20.5,38h8.8v-1.7H20.48c0,.45,0,.91,0,1.37C20.5,37.81,20.5,37.91,20.5,38Z"/><path class="cls-7" d="M40.17,21.43A18.14,18.14,0,0,0,43.56,27a17.92,17.92,0,0,0,8.88,5.42c.54.15,1.14.07,1.62.42.74,0,1.48.06,2.22,0s1.48-.06,2.22-.13a18.14,18.14,0,0,0,5.1-1.5A18,18,0,0,0,73.92,14.09c0-.52-.16-.74-.72-.77a17.18,17.18,0,0,0-9.81,2.37,3.78,3.78,0,0,1,.17,2.25,17.69,17.69,0,0,1-6.63,13.19c-.41.34-.72.82-1.31.89l-.08.07.07-.08h0a3.69,3.69,0,0,1,1.14-1.42,4.49,4.49,0,0,0,.41-.46,17.73,17.73,0,0,0,3.73-11.65A1.79,1.79,0,0,1,61,17.32,2.92,2.92,0,0,1,60.7,16,18,18,0,0,0,55,5.7c-.23-.21-.47-.48-.77-.09l-.18.2c-.29,1.07-.94,2-1.33,3A28.17,28.17,0,0,0,51,17.53a30.46,30.46,0,0,0,1.21,10.23,22.54,22.54,0,0,0,1.55,3.68c.1.2.27.37.25.62-2.53-1.53-6.55-7.85-5.74-14.81-.29,0-.44-.22-.64-.37A17,17,0,0,0,39,13.41,19.92,19.92,0,0,0,40.17,21.43Z"/><path class="cls-8" d="M8.93,22.81a2.55,2.55,0,0,1,1.56-2.71A6,6,0,0,0,9.66,20H8.88a5,5,0,0,1-1.46-.12l-.18-.06-2.88,0c-2.26,0-3.21,1-3.21,3.22V38H8.94C8.94,33,9,27.88,8.93,22.81Z"/><path class="cls-9" d="M7.42,19.91A5,5,0,0,0,8.88,20h.78a6,6,0,0,1,.83.08,2.55,2.55,0,0,0-1.56,2.71c0,5.07,0,10.14,0,15.21h8.65c0-.57,0-1.15,0-1.72-.27-.22-.17-.52-.17-.8,0-1.57,0-3.14,0-4.7,0-.71.22-.9.87-.85s1.47,0,2.21,0h3c0-2.48,0-4.95,0-7.42a2.64,2.64,0,0,0-2.68-2.69h-10Z"/><path class="cls-10" d="M41.57,34.89a8.33,8.33,0,0,1,1.72-1c.4-.17.81-.32,1.23-.46.63-.2,1.27-.37,1.91-.54a76,76,0,0,0-8.27.16,10.58,10.58,0,0,0-7.26,5h7.83A11.63,11.63,0,0,1,41.57,34.89Z"/><path class="cls-11" d="M54.06,32.82c-.48-.35-1.08-.27-1.62-.42A17.92,17.92,0,0,1,43.56,27a18.14,18.14,0,0,1-3.39-5.55,19.92,19.92,0,0,1-1.19-8,27.2,27.2,0,0,0-3.13-.08c-.43,0-.57.15-.6.59a17.77,17.77,0,0,0,2,9.31,17.57,17.57,0,0,0,13.45,9.51l1.68.12A11.93,11.93,0,0,0,54.06,32.82Z"/><path class="cls-12" d="M10.82,13.1c0,2.25,0,4.5,0,6.75h6.64c0-2.62,0-5.23,0-7.84A2.4,2.4,0,0,0,15,9.57c-.78,0-1.57,0-2.36,0A3.39,3.39,0,0,0,10.82,13.1Z"/><path class="cls-6" d="M20.48,36.29v0H29.3c0-1.88,0-3.76,0-5.63,0-.64-.26-.75-.81-.74-1.66,0-3.32,0-5,0h-3C20.49,32.07,20.49,34.18,20.48,36.29Z"/><path class="cls-13" d="M54,32.06c0-.25-.15-.42-.25-.62a22.54,22.54,0,0,1-1.55-3.68A30.46,30.46,0,0,1,51,17.53a28.17,28.17,0,0,1,1.74-8.72c.39-1,1-1.93,1.33-3h0a17.17,17.17,0,0,0-5.8,11.45C47.47,24.21,51.49,30.53,54,32.06Z"/><path class="cls-14" d="M10.84,19.85c0-2.25,0-4.5,0-6.75a3.39,3.39,0,0,1,1.85-3.51c-.87,0-1.74,0-2.62,0a2.54,2.54,0,0,0-2.81,2.85c0,2.48,0,5,0,7.43l.18.06Z"/><path class="cls-13" d="M60.89,18.48a17.73,17.73,0,0,1-3.73,11.65,4.49,4.49,0,0,1-.41.46A3.69,3.69,0,0,0,55.61,32h0c.59-.07.9-.55,1.31-.89a17.69,17.69,0,0,0,6.63-13.19,3.78,3.78,0,0,0-.17-2.25A12.32,12.32,0,0,0,61,17.32,1.79,1.79,0,0,0,60.89,18.48Z"/><path class="cls-17" d="M54.07,5.81h0"/><path class="cls-17" d="M54.26,5.61l-.18.2"/><path class="cls-15" d="M17.61,36.3c0,.57,0,1.15,0,1.72H20.5c0-.11,0-.21,0-.32,0-.46,0-.92,0-1.37h0v0Z"/><path class="cls-13" d="M55.61,32l-.07.08.08-.07Z"/><path class="cls-10" d="M20.5,30c-.74,0-1.47,0-2.21,0s-.9.14-.87.85c0,1.56,0,3.13,0,4.7,0,.28-.1.58.17.8h2.87C20.49,34.18,20.49,32.07,20.5,30Z"/><g class="cls-18"><path class="cls-19" d="M-23.92,80.07a3.9,3.9,0,0,0-1.61-.36,34.84,34.84,0,0,1-4.37-1.19,1.06,1.06,0,0,0-.12-.1c-8.34-3.65-13.23-10-14.24-19a22,22,0,0,1,6-17.78,23.89,23.89,0,0,1,7.55-5.43,25.16,25.16,0,0,1,9.89-1.89A22.75,22.75,0,0,1,1.06,53.53,22.92,22.92,0,0,1-12.76,78.31a23.41,23.41,0,0,1-6,1.59c-.16,0-.38-.07-.47.17Zm8.8-27.34a1.43,1.43,0,0,0-.24.19L-27.69,65.25a1,1,0,0,0-.35.49,1.77,1.77,0,0,0-.32.21c-2,2-4,4.06-6.1,6.07-.45.44-.1.61.17.82a20,20,0,0,0,15.52,4.28A19.48,19.48,0,0,0-5,68.69,19.5,19.5,0,0,0-1.57,54.52,19.45,19.45,0,0,0-5.93,44.43c-.29-.36-.48-.47-.84-.09-1.37,1.41-2.76,2.8-4.13,4.2S-13.74,51.3-15.12,52.73Zm-2-2a57.65,57.65,0,0,0,4.18-4.24c1.48-1.22,2.71-2.69,4.11-4,.44-.41.43-.64,0-1a19.94,19.94,0,0,0-14-4.46,19.28,19.28,0,0,0-12.62,5.54,19.58,19.58,0,0,0-6.14,16.3,20.15,20.15,0,0,0,4.44,11c.31.4.51.51.93.08,1.36-1.42,2.78-2.78,4.15-4.19a17.59,17.59,0,0,0,2-2.12,1.8,1.8,0,0,0,.65-.54c2.43-2.43,4.87-4.85,7.29-7.29C-20.45,54.18-18.77,52.47-17.08,50.76Z"/></g></svg>